/* XPM */
static char *c0b0b88615bb41a6d5ef970330819e9dcf35NxXKSOkkyxWo[] = {
/* columns rows colors chars-per-pixel */
"64 64 227 2 ",
"   c #4C9735",
".  c #4B9C35",
"X  c #4D9D39",
"o  c #539837",
"O  c #529D3B",
"+  c #5B9C3C",
"@  c #689A3E",
"#  c #4CA336",
"$  c #4DA439",
"%  c #4FAE3D",
"&  c #55A236",
"*  c #53A43C",
"=  c #5BA33D",
"-  c #53AC3C",
";  c #5AAB3D",
":  c #55B23D",
">  c #5AB53D",
",  c #55B83D",
"<  c #5BBB3D",
"1  c #63A23E",
"2  c #5DC03F",
"3  c #5B9C42",
"4  c #649E44",
"5  c #6B9B44",
"6  c #749D49",
"7  c #55A640",
"8  c #5CA341",
"9  c #54AC41",
"0  c #5BAC43",
"q  c #54B542",
"w  c #5AB642",
"e  c #56BB42",
"r  c #5BBC42",
"t  c #5CB34A",
"y  c #5DBE48",
"u  c #63A445",
"i  c #6BA346",
"p  c #6DA54B",
"a  c #64A949",
"s  c #6BAB4B",
"d  c #78A54C",
"f  c #61BD43",
"g  c #66B44A",
"h  c #62BD49",
"j  c #6BA950",
"k  c #79A954",
"l  c #7CAC54",
"z  c #69B853",
"x  c #77B557",
"c  c #56C142",
"v  c #5CC243",
"b  c #5DCA44",
"n  c #5DC349",
"m  c #5ECB49",
"M  c #5ED14B",
"N  c #61C242",
"B  c #62C542",
"V  c #62C942",
"C  c #62CB43",
"Z  c #68C944",
"A  c #63C44A",
"S  c #68C74A",
"D  c #63CC4A",
"F  c #69CC4A",
"G  c #63D144",
"H  c #63D34B",
"J  c #65D648",
"K  c #6AD54D",
"L  c #69D94E",
"P  c #71D24A",
"I  c #69C855",
"U  c #72C65A",
"Y  c #65D451",
"T  c #69D554",
"R  c #65D855",
"E  c #6ADA52",
"W  c #6AD75A",
"Q  c #6DDB59",
"!  c #71DE5B",
"~  c #6FE05C",
"^  c #75E25D",
"/  c #74D062",
"(  c #75D362",
")  c #73DC63",
"_  c #75E562",
"`  c #79E561",
"'  c #D2C92D",
"]  c #D6CC38",
"[  c #DBD238",
"{  c #E3DA2C",
"}  c #E6DC37",
"|  c #E4DB3D",
" . c #EDE639",
".. c #F3ED3C",
"X. c #F6F63A",
"o. c #80A44C",
"O. c #83AB56",
"+. c #8AAA56",
"@. c #84AE5B",
"#. c #93A958",
"$. c #83B15C",
"%. c #8AB25C",
"&. c #9CB15D",
"*. c #A7B55D",
"=. c #9DAD62",
"-. c #85B764",
";. c #8DB562",
":. c #93B364",
">. c #94B76B",
",. c #98B668",
"<. c #A5AF64",
"1. c #A8B76C",
"2. c #B5B86F",
"3. c #A8BB74",
"4. c #B3BB77",
"5. c #C1BF7B",
"6. c #87C567",
"7. c #96C16F",
"8. c #9AC777",
"9. c #B0C16F",
"0. c #A3C276",
"q. c #ACC177",
"w. c #ABC57D",
"e. c #B4C27B",
"r. c #B7C77B",
"t. c #BEC27B",
"y. c #D4CC4A",
"u. c #DDD447",
"i. c #D4CF5E",
"p. c #DBD459",
"a. c #E2DB57",
"s. c #ECE747",
"d. c #F3EC47",
"f. c #F7F349",
"g. c #FBF54C",
"h. c #ECE658",
"j. c #F3EC5D",
"k. c #F9F754",
"l. c #D0CF6A",
"z. c #DCD868",
"x. c #C4C47D",
"c. c #CBCD7C",
"v. c #D5D477",
"b. c #DCD974",
"n. c #DCD97D",
"m. c #E1DB69",
"M. c #E2DC76",
"N. c #E7E36E",
"B. c #F1E965",
"V. c #FAF568",
"C. c #E5E27B",
"Z. c #E9E678",
"A. c #FCFA75",
"S. c #F8F479",
"D. c #AAC888",
"F. c #B8C982",
"G. c #BACC8B",
"H. c #BBD293",
"J. c #C1C483",
"K. c #C4CB85",
"L. c #C9C987",
"P. c #CBCD8C",
"I. c #D1CF87",
"U. c #C6D188",
"Y. c #DCD984",
"T. c #D6D48A",
"R. c #DCDC8D",
"E. c #CEC791",
"W. c #D3CE91",
"Q. c #CAD799",
"!. c #D4D393",
"~. c #D8D593",
"^. c #D2D897",
"/. c #DBDC95",
"(. c #D7D49A",
"). c #D9D59D",
"_. c #D2DB9D",
"`. c #DCDC9B",
"'. c #E1DD89",
"]. c #E1DD96",
"[. c #DEE097",
"{. c #E7E483",
"}. c #E9E68B",
"|. c #FCF782",
" X c #FEFA8B",
".X c #E9E797",
"XX c #E4E39D",
"oX c #FEFA99",
"OX c #C7DBA1",
"+X c #CCDCA2",
"@X c #D5DAA1",
"#X c #DCDBA3",
"$X c #E4DDA4",
"%X c #E4DEAB",
"&X c #DDE3A4",
"*X c #D0E3AD",
"=X c #DCE5AC",
"-X c #D7E5B2",
";X c #E4E4A3",
":X c #EAE9A4",
">X c #E3E4AA",
",X c #E9E7A9",
"<X c #E5E9AC",
"1X c #EBEBAC",
"2X c #F2ECAA",
"3X c #F7F5A8",
"4X c #E6E5B2",
"5X c #ECECB4",
"6X c #EDEEBB",
"7X c #F1EEB4",
"8X c #F2EEBB",
"9X c #EFF1B1",
"0X c #EEF2BA",
"qX c #F1F1B4",
"wX c #F4F3BC",
"eX c #FAFABB",
"rX c #F2EFC2",
"tX c #F5F4C3",
"yX c #F9F5C4",
"uX c #F6F9C4",
"iX c #FAF9C5",
"pX c #F8F6CB",
"aX c #F6FACB",
"sX c #FCFACC",
"dX c #FCFBD2",
"fX c #FEFDDA",
"gX c #FFFEE2",
/* pixels */
"H m v c B V v e c c c e v v e e e c M M c c r r e q q v V B V Z B < e e c b C 2 v r w q w r r v v b v < f r f B r q e c c c M R ",
"v v e e c B C e e 2 c e v 2 e e 2 c c M c c r e e e q e e f B f r q e e c C b c r r v r r c v B v b r r N N f r e : e e v b M M ",
"e r e e r N V B c e e e e v b b b b v c c v r e e e e e e N e e w q e c 2 b 2 c N B n c e e c r r , w g c r 9 9 % e c n M M b b ",
"e r , v N f V V v c e e e r 2 V 2 b c c D B N N B c e e r r w q q q e v b v v v v w v e c e e - w 6.x & $ $ X 3 $ e n M H M c c ",
"e e r r v r e v v r e , c C b b b 2 e c B V V V B B v e , , q w w r e v 2 c q q q q c n m v 0 6.*XdXwXF.O u D.D.s 7 A Y m n v e ",
"q e w e e c e r r r c B v C G G b c e c V V V V V V r e q e e q r y r e e e q q q e n n m e -.rXfXfXiX&Xp w.fXfXQ.x q n c c B c ",
"e e r w r c < v A A A D D D J J C r e e r V A N B r e e e c r e q v n n e e e q q n m Y D - x 7XwXwXuX:X9.[.sXiX6X3.7 q c v N v ",
"q q e r e e v A A S F D n n b m C v r v N < v v r e q e c c r e y F D m c q q e c n Y m r $ 3 e.1X1X.X.XR.XXqX1X#X3.* < N < r r ",
"e e e e e e n F F F F N r r r A N v v r N r r r q e q e e e < A S S A A r e e c m H m q a 8.D.F..XC.h.V.d.u..XT.=.3 $ y v c r r ",
"r c e r e e y F F A v v v r w e < f e r r e r r r w q q 0 0 * - q - 9 9 q v e c b m c * D.dXtX7X}.Z. X Xg.| Y.I.d o $ 9 r r r v ",
"v v v e e c r N C N r r v v r r r e r w f e e r n t a -.Q.-XG.k   j -.4 X q e e c b v 0 +XfXiXqXZ.N.A.A.f.{ b.;X4X(.x 0 v n B v ",
"B B c r v r e r r r e e v C C C v r w r N N v D I z H.6X6XsXeXq.5 @X8X+X8 $ e v b C v * D.dXwX;Xb.z.s...} ] n.;XdXpXH.x W Y B e ",
"r r r v f r e N v c e c D H H m v e r r r n Y ) / U <XsX0X<X1Xt.3.5XtX4XF.4 - m H D c $ ;.%X$XK.t.XXb.p.l.n.).>XiX0X8.U W H v r ",
"e c N N r r f r v c m H L T H m y w r f v m ) ) U z 4._.>X;X<X[./.2X1XpX#X:.y T L H c - 3 l +.O.r.0X5X.XY.*.P.1XwXH.S U W D v w ",
"w r < f < f v 2 v D H T E H b v w w r v m W ) U x 7.:.r.{.C.B.B.a.N.,X#XE.%.h E L D e : - $ . s 4XdXuX1X!.5 ,.J.P.-.N F D C v e ",
"e v v r f e r B D J E R M m c c f w r n R ) ( U *XtX<X:XC.S.A.A.j.p.].2.+.4 g Y H c r e w w * 8 F.5X>X5X^.5 3 u s 0 r Z c N v r ",
"r f v v < r v C G L L H c c e c e e v C Y Q U 6.6XdX8X1Xa.g.oXS. .[ XXF.0.$.0 A D v f e q w > # = k l F.;.* - 2 , e r B v r r r ",
"w f B f N N C G J J m v e e v c r v v V G F f g =XtX5X$Xp.d.V.d.{ y.XX5XpX+Xg w v B N e q w e q * O * = - ; v 2 c e q v B c q e ",
"e 2 N r N V C C G Z N r c r r r r r r N D G f s &XwX$X~.Y.z.u.[ y.Y.`.5XtX4Xx w v C V r e r r < q e r c v v B B c w q e r r r r ",
"r v v r N 2 B V V v v r r v N r e e e D L J Z a 4.P.x.*.R.5XC.z.v.T.;XtX4X3.* w C C r r e r e e r r n D m c r r N e q q e e r r ",
"v N N v r r r V G 2 < r 2 2 V V b v c K ! Q K w = u i 1.tXdX1X$X<.=.~.4X!.s , D b v c e w w q v m m H H m e N r e e r v c 2 v r ",
"e N v v N e r f 2 2 c c 2 V G G V 2 n J E Q Y v a & + K.yXyX7X5X1.@ <.<.O.; n G m c e e w w c D J L Y M m v v e q e v C C C N r ",
"r r c c v v v v 2 2 2 V G G G G 2 v N D F H C N w 0 ; %.J.K.(.!.@.  o O , c m D b 2 e e e e b H E E M m c e e q e n F D B N c r ",
"B f < v m M J G G 2 2 G G C C C B r < v b v B r r e w 0 i p l l 7 * q r m G G b c c e e e e m Y H D n b r e w r v m H Z r r v c ",
"r v b m H E K G C v C C G C C V B r e r c 2 B v q y S S N f q q q r C C B C v v e r e q e r c D n v e r v r e e c m C r w q q r ",
"r < m G L L H C B C C C C V Z V v C c c v N B r e N F F F N N v c B v B v r r r w w w q e r c r v v f y v r e v m C B r w w r f ",
"e e c C D D V B Z V V C V V B B r D D H H H Z v r N V Z Z V V c r c v r r q q q q r e e e N N r r v N r e r c H H J D B f w e r ",
"e e v v v N B V Z V V C Z V V < v F E ! ! K V v r f f r r B C e e q r e q q q w r r r r r B r r r r e q q e m H R H C N f f < f ",
"r r 2 b b 2 N V B V C C C G D b Y ! ` ^ E F C r e r r e r B v e r e r r e e e f r < r e r v e e r e q q e c m H H D f w f f N < ",
"c v b 2 C C B C V C C C G C D K ^ ` ` E Z V f w e e r r f B B c r r w r r f N N r e e r e r e r e q q e c v b m F V f f N f r f ",
"c b b b v C v B 2 V V B 2 C G Q ` ` Q D N N r w r r r S S S A e r c r e r B N y r e r N r r e e q e r v v r e r v e w r f w r f ",
"2 c 2 b C 2 v 2 < r B v < 2 G T ^ ^ Y b B N r r r f Z P P F A r v r w r r N N N r q e e e e e q q w e N c q q e e q e r < f e f ",
"b 2 V b B B r 9 * $ : ; * > z f I I J C N r w w y A S D F S B V A v h S A A A A r q q q q 9 q 9 9 q e v w q q q e e < e e e e e ",
"b G 2 b N N q * x l + + 8.OX-X8.z g v D r r r e A A S A y y r f D F F F A A A f e e e r w q q q w e v r q e q q e e c e c e r r ",
"G G V 2 < > O ,.5X8X1.d [.sXtX6X-X>.- r r f r A A A D S r w e r A F S F S A h r e c m v r w e e e N A N c v e e e e c r e e c < ",
"V V N v , & @.).8XsX^.&.[.1X6XaXyXw.= r V v n A n I n y e e y f N S A F S y f n m m Y m r r v r e N V C D D c e c c e e e e v v ",
"2 B c , : 5 F.8X5X1X.Xb.{.{.;X;XP.k   0 < 2 A n y n r e r f h A A A A A r v D T E E Y n e r r r v B G L L J v c e e q q e r N f ",
"< v e e : 4 4.).;X;XM.M.S.{.XX/.=.,.s O : < v A y t w e f A S S A A c v n D Q Q ~ E m r c r e r c B J L L H b e e q q q q e v r ",
"e e e r - X 5 #.c.'.| k. XA.N.Z.XX0XrX8.- q f y w w r n A F F F C B c v Y Q _ Q Q F c r v c , q r b M M J m v e q q q e r r f 2 ",
"e e e e - = ,.3.~.Y.{ g.oX XZ.Z.1XyXpXOX7 q r w r r r A F F P F N r m m W _ ~ Q H r e e r v v c b b b m m v c e w r e c r e r e ",
"q e < < ; 0.tXtX,XY.[ s.f.f.z.b.;XeX8Xw.- q r r r r v Z F A A c v C G E Q ~ T D v < r r r N C b b 2 v v e e e e e r e e e e e q ",
"q w v < 1 G.pXtX].].u.' { u.b.v.!.<XwX0.* v B N r r S F F A n v D G H E T D r > * 0 ; - > r y < , , v c q q q e r r e e r v r e ",
"e q r r & s ^.wX5X~.I.T.'.:X8Xt.1.L.E.@.- v N r e r r N v f v b m M H H v q O 8 D.=XQ.-.9 7 9 $ $ 7 ; a , : e e r v V 2 r N c e ",
"e r r r ; # 1.>X$X5.#.P.:X7XdX#Xd d p = y n r e q r e e e r v G M J M m q * -.+XsXsXaX0X>.X 7 8.OXH.s . q e v c c B B v c r v r ",
"< N N N r ; 1 #.<.d 6 (.eX5XtX5Xx   : v D D m r w e r w e r C G J b r r * k 5XfXfXdXeX0XU.o >.dXgXfX_.l a n D b c v b V v 2 N N ",
"c B B V N > & & o   @ F.#XP.K.3.O 0 N D H F C c e e > r v b C C b v e q O 8.iXdXdXuXwXwXF.5 Q.dXgXfXwXQ.k w m b c c 2 v r r N N ",
"r r V V V V N < > : * * l s 3 + * < v c N N r r r r r r C C B B C N r r * l =X5X9X0XuX0XXXc.&XtXuXwX5X).%.w B c e e c r N r N < ",
"r N V C C V V V f < w - - - , , v G b e e e r e r N r r N V B B v v e -     0.>XqX9X:X.X}.R.XX:X1X:X).E.@.> e r e r e e r N N B ",
"V C b 2 C C C B < B 2 r < c m D G H b r e r r r r C C r f r N V v > O u ;.;.,./.3X{.a.V.d.s.u.C.<X/.t.=.= : r e w r n v v r e r ",
"N v 2 b B N v B B C G v n J R H D v v e e r v b V v 2 v e r B B r * u +XyX5X[.<X{.Z.V.V.k.g.a.a.;Xx.6   . - r v f B A A B e q e ",
"2 b M 2 N e r B B G G G H H H J v r r e r c G K G D C r r v v r > - D.fXgXdXeX2Xm.h.A.eXoXg.} [ XXc.+.k 3 X : r S Z F F F r e r ",
"b b 2 2 e r r N B C G J H D D b r r r v r v H L J b v v N f r r e 0 -XfXgXiXqX1Xz.d.k.oX|.f.} ] XX$X;X$XG.j $ r F F F F N N v B ",
"c c e e r r e N V C G C G B B B N r e v c m H K H c < c A S C v v q D.wXsXiX1XXXz.p.X.X.X. .u.] ;X<XdXaX5Xw.7 y F F F F S f r v ",
"2 c e e r r r N V C C V b v N N B y r D H Y m m b A A A A D D v v % -.5XiX7X`.~.'.p.{ { { ' ' i./.5XfXfXwXG.0 v F A S F V f r v ",
"c e q e r r r r r 2 C V B r r r v c m m D m V v v B F F D D D V N > $.(.%X).x.2.I.,XM.p.y.i.R.XX~.1XaXuX@X$.7 B F n N N f r r r ",
"c c c c f < r v b v r v N f r N m D Y D b m B v < r n n m n c c N > = $.4.1.#.o.P.tXtX:X<X;X9.L.`.1XuX5X,.o 9 D A r N r r v N B ",
"B < v v v 2 2 v 2 q r f r 2 m F Y W Y D < B v v B N c r r r r r < e - * - * 8 e.tXfXaX:X;XL.@ &.W.$X;X!.s . q e v N v D V V C B ",
"N v f v B b b b e q e r r v H W ) W I A r e e e c N e e r e w e r r r > w : a P.pXfXaXwX9X!.d 5 =.4.4.<.= * q e r v n D H G C V ",
"v N v 2 v G G 2 q q c N r n Y W T D Z f f N q q e e e e r r q q e f N r w : # %.`.>X;X1X1XP.O.& = 1 1 1 % : e e r m Y E K H V V ",
"N B v v H J 2 2 c e c v n Y Y Y D v v r f < r c r e r e e e q e r w f < f > ; 0 ,.,.,.K.!.4.i & < < > < < < 2 v D E Q Q H Z V B ",
"V V V 2 J 2 G C B B N v m D D v r r r r v n D C B e q e e r r r e q w w f f > > > & * s l a * > N B B N 2 v m m T E ~ L m c v B ",
"V D G G 2 b G G V v v v D c S r w r e v D H L H C e e e e 2 c c e q w q > f < 2 C 2 r > - - : > 2 B Z N b b G J L L K F v e v B ",
"K L G G 2 b D G V < q r B B < r r r c Y Q T L Z B B B v e c c v e w q q q e 2 b G b c q , : q q < N B V 2 b D D D D V V v c c r ",
"E E J b M G D G G v e e f r f r r y m E Q R F N r N C v r c r c r e q q q q e b M m e e e q q q w B C V b 2 v A v c B N c e r m "
};
