/* XPM */
static char *_39b35c4a6fa4518a4087a01d247c634QUOx2Ny6z1ljt9f0[] = {
/* columns rows colors chars-per-pixel */
"64 64 255 2 ",
"   c #483C1A",
".  c #6F3D10",
"X  c #2D4A18",
"o  c #354C1B",
"O  c #2C5714",
"+  c #365718",
"@  c #355B1A",
"#  c #3A5C1C",
"$  c #36651A",
"%  c #3B631B",
"&  c #3D6C1C",
"*  c #3E7219",
"=  c #364D21",
"-  c #3B5524",
";  c #3B5B22",
":  c #3D6322",
">  c #3E6825",
",  c #474919",
"<  c #594B16",
"1  c #46571A",
"2  c #565719",
"3  c #714714",
"4  c #695A19",
"5  c #745617",
"6  c #43651C",
"7  c #426C1D",
"8  c #58671B",
"9  c #43741C",
"0  c #457B1B",
"q  c #497C1E",
"w  c #51731E",
"e  c #69671C",
"r  c #77651C",
"t  c #445A25",
"y  c #535423",
"u  c #725427",
"i  c #426523",
"p  c #446D24",
"a  c #44642A",
"s  c #4A6628",
"d  c #456B29",
"f  c #4A6C2B",
"g  c #576927",
"h  c #457224",
"j  c #497426",
"k  c #477922",
"l  c #4B7C24",
"z  c #467229",
"x  c #4B742B",
"c  c #4D7B2B",
"v  c #547529",
"b  c #517C2C",
"n  c #4A6B32",
"m  c #556E37",
"M  c #4E7432",
"N  c #4A7836",
"B  c #527633",
"V  c #537B32",
"C  c #577C37",
"Z  c #696927",
"A  c #786724",
"S  c #697929",
"D  c #64773C",
"F  c #3E7644",
"G  c #4A7B46",
"H  c #597C41",
"J  c #92390A",
"K  c #B63A03",
"L  c #C63F04",
"P  c #98480D",
"I  c #8B4B11",
"U  c #855916",
"Y  c #975716",
"T  c #A94608",
"R  c #B94606",
"E  c #B1570F",
"W  c #8E641D",
"Q  c #A96B19",
"!  c #8D5128",
"~  c #A84723",
"^  c #B8512B",
"/  c #936D30",
"(  c #B16B2A",
")  c #C54706",
"_  c #D44605",
"`  c #CA550A",
"'  c #DA5808",
"]  c #CC5216",
"[  c #D75717",
"{  c #E74A03",
"}  c #EA570D",
"|  c #F75707",
" . c #F35D12",
".. c #D16913",
"X. c #EA6D0C",
"o. c #F3760A",
"O. c #E8651A",
"+. c #F86718",
"@. c #F67817",
"#. c #CC582A",
"$. c #C96626",
"%. c #D86525",
"&. c #C8782A",
"*. c #CD6537",
"=. c #D76638",
"-. c #D17431",
";. c #E86B26",
":. c #ED6D28",
">. c #E97728",
",. c #FA762A",
"<. c #EB7A39",
"1. c #FA7A34",
"2. c #A2724C",
"3. c #D66C42",
"4. c #CF734B",
"5. c #EB7D41",
"6. c #4A831D",
"7. c #4C871E",
"8. c #518D1E",
"9. c #4D8224",
"0. c #4E8B23",
"q. c #4E812B",
"w. c #548425",
"e. c #528C23",
"r. c #53842C",
"t. c #558A2C",
"y. c #5A8C2D",
"u. c #549423",
"i. c #589728",
"p. c #5B932D",
"a. c #5C9B2B",
"s. c #4E8132",
"d. c #558332",
"f. c #5A8433",
"g. c #568A32",
"h. c #5A8C33",
"j. c #55843C",
"k. c #5A853B",
"l. c #5D8B3B",
"z. c #5C9332",
"x. c #5E9A33",
"c. c #5E943B",
"v. c #65912B",
"b. c #618D3A",
"n. c #619534",
"m. c #629B33",
"M. c #63943B",
"N. c #659B3B",
"B. c #699D3D",
"V. c #5DA12B",
"C. c #63A32E",
"Z. c #65A334",
"A. c #68A636",
"S. c #66A934",
"D. c #6AAA36",
"F. c #64A339",
"G. c #6AA53A",
"H. c #67A839",
"J. c #6CAB3A",
"K. c #70AD3E",
"L. c #69B036",
"P. c #6DB13A",
"I. c #71B43B",
"U. c #73B93B",
"Y. c #488649",
"T. c #598945",
"R. c #5C9249",
"E. c #488A53",
"W. c #548A55",
"Q. c #4A945A",
"!. c #569657",
"~. c #648C45",
"^. c #659342",
"/. c #6B9B43",
"(. c #6A9847",
"). c #6B954B",
"_. c #6E974E",
"`. c #669855",
"'. c #749A58",
"]. c #6CA343",
"[. c #6CA645",
"{. c #71A644",
"}. c #73AC45",
"|. c #72A54B",
" X c #75AC4B",
".X c #79AC4E",
"XX c #74B343",
"oX c #7AB44C",
"OX c #7AB848",
"+X c #6EA957",
"@X c #78A857",
"#X c #7BAD54",
"$X c #7CB352",
"%X c #7CB455",
"&X c #4C9962",
"*X c #559B66",
"=X c #719C62",
"-X c #57A36B",
";X c #5BAB73",
":X c #75A96D",
">X c #69AA79",
",X c #88812E",
"<X c #F88410",
"1X c #F7861B",
"2X c #D48530",
"3X c #E98425",
"4X c #F38923",
"5X c #F79726",
"6X c #ED8D37",
"7X c #F78937",
"8X c #FEA937",
"9X c #B48D5E",
"0X c #82B84F",
"qX c #81BA54",
"wX c #83B759",
"eX c #87B862",
"rX c #8BB26C",
"tX c #D48C51",
"yX c #D98659",
"uX c #ED8D4E",
"iX c #FB9747",
"pX c #FB9B56",
"aX c #DDA055",
"sX c #FBA451",
"dX c #D4906C",
"fX c #E6966E",
"gX c #F3AA6F",
"hX c #92C46A",
"jX c #78B487",
"kX c #7CB88C",
"lX c #BD9985",
"zX c #83B588",
"xX c #9AB684",
"cX c #88BB93",
"vX c #CA9986",
"bX c #D4A791",
"nX c #E7AB86",
"mX c #ECB494",
"MX c #CFB3AC",
"NX c #E6B9A8",
"BX c #8DC398",
"VX c #A7CB8D",
"CX c #96CCA5",
"ZX c #BBD6A6",
"AX c #CDD6B3",
"SX c #F4D1B8",
"DX c #C7E2B5",
"FX c #BEC6CD",
"GX c #CFCFD1",
"HX c #EDD7CE",
"JX c #F5E7D8",
"KX c #D5DEE6",
"LX c #EAECEE",
"PX c #F7F9F9",
"IX c #FDFDFE",
/* pixels */
"|.wX{.G.A.D.G.B.w.z p j p j x c b x c c x k x j r.r.c c d ~.@X].[.A.A.A.Z.x.h.A.H.F.F.F.k.M./.N.m.m.b j j p x c b b r.q.B f ; ; ",
"#X#XG.A.A.A.Z.m.n.b j j j z r.r.r.c x h p h p p p l x j C rXVX@XF.].S.x.e.t.d.F.H.A.N.g.d.d.(.N.z.y.f j j c x.m.x.F.Z.m.m.f.a a ",
"wX.XA.A.A.Z.m.v.m.p.c x x h.g.r.c x j p p p h > ; ; i B VXZXDXVX/./.F.g.p.h.d.d.c.A.z.r.d.V s.k.f.x p x r.x.Z.m.x.x.m.n.z.x.f.n ",
"wX#XA.A.G.Z.m.n.y.z.x d r.r.x x z x j j j x x p ; - n rXDXDXVXhX#Xz.m.z.z.d.d.B B g.g.q.V V c x b x d j p.y.y.p.z.x.x.h.h.h.c.V ",
"#XwXJ.J.A.m.n.h.h.r.j p b h f j x j B k.+X@X@X|.l.d ).AXZXVXhXqX$X(.f.n.f.B C C B B V s.b M x p : : 8 r 8 w w.w.t.z.p.t.t.y.y.h.",
"/.wXJ.J.D.m.z.h.b b > j g 6 d d c T.@XeXrXrXwX%X X^.=XVXVXhXqXqX$X{.k.c.d.B B M B M c x x f f i % 3 R ) ` E S w.q.t.t.t.p.y.f.h.",
"~.eXoXJ.J.x.s.V Z g > A ( 2XS g ^.%XqX%X X{.G.].`.:XcX>X%XeXqXOX$X|.l.f.f f d x M d q.x g 5 U 4 2 T | | ,.:.Q v l c r.g.h.c B C ",
"H _.eXXXJ.z.v Q aX9XZ 3X6XgXtXg M.|. X{.].]./.).:XBXcX>X`.+X%X%XoX^.C f.d.b d a p d c v I ) _ R T ) } o.iX6XY w v j q.t.b f a B ",
"T.C ~.eX.Xj.A O.5X7X3X3X5XiX&.g f.p.n.n.N.b.W.zXcX>X-X-X!.!.+X X/.k.M.J.K.A.v.w.d > j g R ;.+.} ] $.4.-.-.%.P I P 5 v x f v k.k.",
"~.C a C ^.^.Z E o.1XnXmXpX1X( Z r.w.y.n.c.~.zXcX>X-X*X!.R.R././.].^.}.OXI.G.G.A.r.i p e ` 7XiX+.-.MXFXGXnX%.' { ' ` g c b.m./.M.",
"f.a > - t D ,XA ..nXPXPXJXaX4X6X9Xw r.r.T.zXBX>X*XW.W.E.T.R. X$X{.K.0XI.J.G.A.S.a.e.w 2 Y >.7X%.MXGXKXPXLXyX| +.7X%.Z g.t.t.y.h.",
"V s t - = t A / &.SXLXPXPXgX3XiXaXS v b =XBXjX*XW.W.G G R.$X}.G.n.{.qXD.G.A.A.A.C.u.9.w 5 Y ` O.GXLXPXIXIXfX| ,.pX6XZ b r.r.t.r.",
"B d.V ; o , &.sX6XtXFXKXKXaXX.4X>.A l M jXcX>X*XW.Y.G C oXXXS.A.n.].qXJ.A.A.A.S.m.a.7.7 1 1 P ' mXIXIXIXJXuX+.:.<./ p x b r.d.r.",
"d M s.a X 1 $.6X2X-.9XlXdX&.E E W g j V zXkX*XW.G G N `.oXI.S.A.m.B.wXP.A.D.A.A.Z.m.e.9 % 3 ) | >.mXHXHXuX,.%.W A 8 : x b r.r.r.",
": d d x = - W ] E Q ..o.8XuXr 8 f p M H cXjX*XG G G `.oXI.P.S.V.z.c.wX}.A.S.A.A.A.a.8.q 8 R | +.O.>.7X,.@.+.O.5 6 i M B b b r.p ",
"d a d x t t H A u y E X.3X3XZ d p j x H cXjX&XG G G |.0XI.P.C.u.w.6.{.}.D.Z.S.A.G.V.u.8.8 T +.7X7XO.' } ,.7X,.Y i C |.^.h.x p : ",
"d d t M B H ~.n a t 4 Y E r i > 9 9 l q.zXzXW.G G G  XoXP.D.u.8.0 9 N.0XI.D.C.A.C.V.u.8.9 4 ( 6X-.e U } 7XsX6XA f ).].c.z.t.> i ",
"> > n _.).=X~.m s a f f j k p 7 9 q l l `.:XY.G N G  X XS.a.8.7.0 9 j {.I.J.G.C.V.V.u.8.0 7 2 8 6 $ 1 Y $.$.A # C @Xn.x.z.h.r.> ",
"a N =XrX~.rX^.B f s a f r.b q q q 9 l p.h.d.C B M V {.J.V.u.7.6.* 0 r.N..X0XK.A.C.a.8.8.0 * O O O O O O + + $ 9.).wXn.z.p.z.z.x ",
"n '.'.b.H @XM.b f f f f r.N.M.t.h 9.Z.B.d.d.V V c V B.G.u.u.* * 7.e.n.y.b.]..XG.C.V.7.9 9 * $ O O O O O O O k t./.wXm.n.z.z.z.t.",
"V l.d.c T.'.M.V f b M.c.x.m.G.z.t.N.G.n.d.d.d.V V V c z.u.7.l e.t.r.C C m B b./.K.n.j l q 9 $ q.e.t.> $ O * p.p.].hXF.x.i.p.p.z.",
"d.x s.c B ).b.C z.Z.A.A.x.e.w.9.m.J.G.c.r.d.C r.d.B z c 6.0 e.c B B m n n n f B v.M.B.|.q 9 h.#X XoX#Xl.9 u.p.r.(.hXH.x.z.z.z.z.",
"g.x c c x b.n.K.J.P.S.a.e.0 9 y.J.A.J.x.d.V b V x d @ + & l x M n a t n a a t ; s (.'.M.9.j n.}.I.I.OXXX[.i.l j R.hXXXL.x.z.z.z.",
"z.c c b x f.{.oXI.I.S.i.8.9 9 m.G.Z.G.m.g.d.b v Z U U 4 6 7 a - t y t t ; - @ + b.@XM.h.t.b r.G.I.U.I.I. X[.t.p B wXqX[.x.x.i.z.",
"z.q.x c z l.OXXXP.L.V.u.7.* k p.x.F.Z.m.r.c g W =.<.,.[ Y < t , 3 u 3 2 ; ; + x #X@Xc.t.r.r.c h.P.U.U.I.P.G./.b M ).hXwXJ.Z.Z.m.",
"z.q.z z d |.qXU.P.S.a.u.* * k Z.x.x.m.x.q.x A $.pXgX1. .{ I , ! 4.4.#.Y , ; # ^.%X/.M.d.r.r.c t.D.I.U.U.I.D.B.M.M N #XhX%XP.S.A.",
"s.x d > V OXOXP.S.V.u.8.9 * t.%XXXF.x.h.x 6 P :.iXpX1. .| ) I #.iXpX1.} J , f |././.M.f.r.q.q.9.C.D.S.D.S.Z.x.N.k.n B @XhX XF.x.",
"g.j.n > s.XXOXP.V.u.8.7.* k /.qX}.A.m.h.h 1 I %.,.,.,. . . .%.,.1.1. .{ K < B ^.M.l.k.f.q.t.9.h v.C.V.V.a.a.p.p.b.M a C /.M.r.g.",
"q.q.c > M G.XXS.V.u.l l j.'.|.qXJ.Z.v.t.7 1 < E | +.+.:.5.5.;.O.| | { _ J < m D C b v v b r.9.h p.Z.a.a.i.i.u.6.c x : > d.h.q.q.",
"z k V d x z.H.V.i.0.c ).xXZX.X%X}.Z.n.w.w 2 < ~  . .<.nXHXHXmX<.| | { K . , f v B B v b v c l & p.C.i.8.p.u.6.9 * z k t.g.c z h ",
"h h x x r.r.a.i.t.9.'.ZXDXVX#X%XXXZ.i.v.( *.[ :.+.<.SXIXIXIXIXSX:.[ K I , t n g f v x x p j * & t.a.V.XXXXa.q.* k r.t.r.j p h h ",
"h j z j x x t.e.e.M.VXZXhXrX#X].OXF.y.( uXiX,.+.+.fXPXIXIXIXIXIXfX[ K . o t t s p i i 7 i i $ $ w.m.oX}.J.V.q.k q.g.c p p h h p ",
"p h j h h j c d.k.rXVXrX0X.X}.N.}.}./ $.pXpX+.| %.mXPXIXPXPXLXLXNX[ _ ) I . 1 ; 6 i 6 6 # % % $ r..XG.m.Z.m.r.c t.c h p p p h p ",
"p k.@X_.q.j z V T.=X@X+X.XB.B.N.z.A./ #.uXiX .| [ nXPXPXLXKXKXGXbX#.:.1.;.~ < t 6 6 # 7 l h & % M.{.n.v.z.m.r.t.q.j > z h p p z ",
"g.{.eXrX@Xs.s.!.kXcXjXR.B.G.N.n.g.h./ R  .+.| { [ 3.HXLXKXGXFXMX#.%.iXiX1.' 3 2 # # c F.G.A.m.t.B.b.b.f.f.n.p.t.l i h p h z h z ",
"G.}.}. X|.R.:XBXkXjX-XW.l.N.M.M.h.h.S T _ _ _ _ _ %.yXMXGXFXMX2.[ :.1.iX,.[ 3 p % p {.XXI.P.J.J.b.f.f.f.d.x.c.g.c p j p z > h z ",
"D.J.G.G.c.:XCXkX;X-X-XQ.g.h.g.q.t.B.y.r P J J J T $.;.#.4.4.^ [ | |  . .} K Z c 7 l %X0XU.U.I.J.n.r.r.f.f.'.cXcX*Xh j d p z & d.",
"A.A.G.m.-XCXkX;X;X-X&XQ.s.s.c.c./.[.y.y.S r 5 5 $.7XiX;.} | _ ) L _ { { _ K 8 w.l c qXqXU.I.P.J.Z.h.C r.).cXBX>X*XN p p h p q.R.",
"N.G.^.k.kXBX;X;X;X&XE.Y.l.[.x.z..X}.v.e.t.t.t.U [ iXpX,.| | ) J J J K K P 4 w 6.l 9.qXqXI.I.P.J.G.n.f.).zXjX-X-X-XW.z j x d.{./.",
"x.x.l.+XCXjX;X;X&XQ.Y.[.oX^.z.z.wXXXm.y.t.r.0.r ] O.+.| | { R 3 , . 3 3 8 k 6.9.9.l oXOXI.L.J.G.G.N.l.zXjX-X*XQ.Q.!.x x d.[. X X",
"M.k.k.jXBX;X-XQ.E.Y.R.%XH.F.Z.z.wX0Xm.x.t.t.t.b U K _ _ _ L J < o + o # r.r.r.r.e.q [.oXL.L.L.S.F.c.>XkX;X&XQ.Q.E.Y.C x.G.H.H.A.",
"B.q.V jXkX-X&XQ.Y.G  X[.F.F.x.x..XqXA.m.p.p.y.t.k r I I J . , + + @ O X : c r.l 9 7 q.].V.S.D.S.z.~.zX>X&X&XQ.Q.Y.R.F.H.A.Z.S.S.",
"].x x :XjX&XQ.Y.G Y.[.m.i.i.i.0.N.%XG.m.C.m.a.z.e.l 7 7 1 # + @ + # : ; % k.G.x.8.q * q 7.i.a.a.s.R.kX-X&X&XE.E.s.[.S.S.A.A.A.A.",
"].s.N =XjX&XE.Y.N C v.e w.9.9.* t..XJ.A.m.m.C.m.i.y.l h d % ; : > ~.V : % ^.oXA.x.e.0 9 * * 9 k z `.jX-X&XQ.E.Y.x.[.S.Z.Z.Z.Z.A.",
"|.g.d.T.;X&XE.F Z E ' ..Y 6.8 U W c.|.J.Z.Z.Z.a.a.u.r.c j > : h (.M.c % % M.}.G.Z.a.e.0 0 0 9 h h =X>X*XQ.E.E.Y.[.H.A.Z.x.p.m.m.",
"/.d.g.M F > F F Y ' 5X5XE U T R E / '.{.A.A.Z.V.i.i.i.c q.h p _./.f.x 6 % M. XA.Z.Z.a.q 0 0 l l z =X>X&XQ.E.F R.[.F.m.m.x.n.m.n.",
"h.g.d.x d d - = P ' 1X5XO.' ' o.4XQ D /.{. XK.a.i.u.0.c d.q._.#X^.b 7 7 : g. XJ.Z.Z.m.w.* 9 0 l m H *X*XE.G N g.[.S.v.m.m.m.m.M.",
"g.h.b d x d : t I ` X.-.uXuXo.<X5X2Xg x l./.K.Z.a.7.h k s.c.#X(.h.b 7 7 : z }.J.A.Z.m.y.% 7 8 g B D D 2.D G > j.[.a.m.m.v.y.b.b.",
"d.h.c d f d s 5 T ` 3.MXHXLXgXo...W i - ; M M.}.l.> c x x _.|.~.g.l 9 7 7 7 N..XG.m.M.r.y ! 2.2.Z / 3.yX4.2.- C ].x.m.h.r.g.t.t.",
"B B d z f p 4 R } X.dXGXLXIXSX1X..r t - = - # c f.k.).~.M ).^.c.g.9.h h 7 7 9.{.G.m.y.C ! #.fX4.^ ^ =.fX4.2.> G /.x.x.r.d.f.b V ",
"B B M : f a 5 ' o.o.dXHXPXIXSX1Xo.X.5 o o X X a _.).f.f.k.).b.l.q.9.9 9 h & 9 b.].M.r.v ! ] =.=.3.3.=.3.*.! t t d.M.d.h.g.B B B ",
"B B M : d p 4 ' 5X5XtXHXPXJXsX1X1X1XW o X X + H ).k.b l ^.(.b.y.9.9.k 9 9 7 b y.f.h.V n 3 ~ #.3.SXHXNX4.*.! u y i x d.f.N B B B ",
"V B B d p a 1 E <X2X..>.uX4X<X<XsX8Xr X X X B '.f.f.x x ).^.b.y.6.0 9.0 9 7 h.h.l j f s m ! #.MXPXPXPXNX=.3.4.2.1 i g.B B M M M ",
"M V z > d a ; 2 5 I ) X.o.<XX...3X..< X X o ~._.j.V j i ^.^.b.h.9.6.9.9 & q v.h.w.c j 2 ! ~ *.GXLXPXPXGX=.=.nX4., : V M n n M M ",
"B M p : : d t = + < ) <X5X4XU 4 5 2 = o X d _.b.k.b j % b.~.c.h.0.9.9.* 9 t.z.p.f.b d ! 4.yX3.vXGXKXKXMX#.#.3.^ , ; a a a d z M ",
"x k.M.x : p a ; + < ` 1X8X3X4 # i : ; ; : C ).f.k.b i $ C M.b.y.r.t.q.c y.m.Z.m.t.l f u 4.4.*.#.lXlXvX4.~ ~ ~ . , @ > z N V V M ",
"l..X}.x.j i i ; 1 6 U E Q r 6 : ; > p x z j.b.h.r.c 6 % j M.c.h.t.r.b y.Z.D.P.Z.t.j M y ~ #.~ ~ #.#.3.yX!     , - > c g.d.r.j.d.",
"M.[.N.N.c i p p d 6 : 6 i : : : : > d d.x k.h.h.f.j 6 @ 6 r.y.h.r.q.f.Z.D.I.S.Z.g.j g m ! ! u u ~ %.3.4.! , o : l q.q.q.c x x x ",
"t.A.Z.m.r.: h l h 7 p & p > > : p j x f.M T.b.h.f.l 6 % @ h e.q.c z h.J.D.S.Z.z.k.b.N.M.B g a y ! ~ ~ ~ 3 t x c c h k k j j p j ",
"h.A.Z.x.t.z l h 7 p h z k j j p p k.^.C p T.b.h.f.c 7 % O % h : - : h.Z.x.x.n.b.|.$X}.A.s.x d s y y y y t n x j h h j z & j p j ",
"x.A.N.z.t.k 9 % & > * j c z h p j {.rX|.V N M.h.t.b h % + + @ X X c M.B.N.z.d.|.%XU.U.J.x.r.f f f b p ; p x z h p h h p z p h h ",
"m.M.$X[.z.9.7 % $ & & & h h p h l [.0XwX(.V k.h.y.b j % % % $ % q.[.XX X X}.l.@XI.U.U.H.x.p.b b V y.x : q.j p i p p p p p h h z ",
"N.].wX XA.x.9.$ $ $ $ & p j j p t.S.S.[.oXl.r.h.t.w.j p i 7 x G.J.J.J.J.G.H.B.}.D.L.D.Z.m.x.r.d.p.x.q.> c > & p p p p h p h j j ",
"M..XwXG.J.J.p.9 & $ $ > p d p l x.p.z.h.(.c.c b r.t.c x x x {.oXD.J.A.H.H.F.m.[.Z.C.S.Z.m.h.z.x.Z.Z.q.p j p p j 7 h p j p h h h "
};
