/* XPM */
static char *abc342524da14b47903a98cbe44fd414EhMh0zcGvCROaqvi[] = {
/* columns rows colors chars-per-pixel */
"64 64 227 2 ",
"   c #623F04",
".  c #644105",
"X  c #6A4404",
"o  c #6D4905",
"O  c #64440D",
"+  c #6C470D",
"@  c #724903",
"#  c #714A04",
"$  c #754B04",
"%  c #774B05",
"&  c #7E5203",
"*  c #7E5204",
"=  c #735B26",
"-  c #745D29",
";  c #735E34",
":  c #735F38",
">  c #766135",
",  c #76613A",
"<  c #79643D",
"1  c #2D2848",
"2  c #362E45",
"3  c #39324B",
"4  c #312F59",
"5  c #3A3553",
"6  c #333666",
"7  c #432B48",
"8  c #47394A",
"9  c #433B52",
"0  c #3B4271",
"q  c #54474C",
"w  c #585546",
"e  c #4C455A",
"r  c #564B52",
"t  c #544E5B",
"y  c #575756",
"u  c #5B5254",
"i  c #5C535C",
"p  c #575C5D",
"a  c #5A5D5C",
"s  c #615453",
"d  c #645B5B",
"f  c #6A5F5D",
"g  c #5F634E",
"h  c #576256",
"j  c #5F7153",
"k  c #61664E",
"l  c #7A6B4C",
"z  c #6A734D",
"x  c #666457",
"c  c #6D635D",
"v  c #6B6A5D",
"b  c #776858",
"n  c #746C5D",
"m  c #697557",
"M  c #76755A",
"N  c #494A66",
"B  c #555567",
"V  c #535A61",
"C  c #5C5B63",
"Z  c #4F557B",
"A  c #545A76",
"S  c #635C61",
"D  c #695F61",
"F  c #5D6163",
"G  c #5B636B",
"H  c #626464",
"J  c #6C6464",
"K  c #6C6B64",
"L  c #64656A",
"P  c #6B656A",
"I  c #64696C",
"U  c #6D6C6C",
"Y  c #736D62",
"T  c #766B64",
"R  c #726C6C",
"E  c #6F7068",
"W  c #747265",
"Q  c #7C7565",
"!  c #757D64",
"~  c #74736B",
"^  c #7A756B",
"/  c #7D796C",
"(  c #686972",
")  c #726E73",
"_  c #6F7274",
"`  c #6E747A",
"'  c #747472",
"]  c #797473",
"[  c #757974",
"{  c #7C7B74",
"}  c #76737B",
"|  c #7D7D7C",
" . c #825303",
".. c #835403",
"X. c #855603",
"o. c #835404",
"O. c #895702",
"+. c #875803",
"@. c #8A5802",
"#. c #8C5901",
"$. c #935D02",
"%. c #965F02",
"&. c #995F02",
"*. c #976102",
"=. c #966202",
"-. c #956206",
";. c #996102",
":. c #9B6202",
">. c #9C6302",
",. c #9F6302",
"<. c #9E6402",
"1. c #976308",
"2. c #827057",
"3. c #867966",
"4. c #827C6D",
"5. c #837D73",
"6. c #8A7E75",
"7. c #817E7B",
"8. c #74815C",
"9. c #7B8565",
"0. c #7F807D",
"q. c #86866C",
"w. c #8D846D",
"e. c #94896E",
"r. c #9E926F",
"t. c #848174",
"y. c #8B8474",
"u. c #8E8974",
"i. c #84837A",
"p. c #8A867B",
"a. c #8C897C",
"s. c #928A75",
"d. c #9A8D72",
"f. c #958B78",
"g. c #938C7B",
"h. c #8A9474",
"j. c #9D9274",
"k. c #95917C",
"l. c #9D947C",
"z. c #989A7D",
"x. c #A19475",
"c. c #A99777",
"v. c #A2967B",
"b. c #A3997D",
"n. c #AA9B7D",
"m. c #576089",
"M. c #68728F",
"N. c #7B7C85",
"B. c #7B8297",
"V. c #848382",
"C. c #8B8583",
"Z. c #8D8C82",
"A. c #88898C",
"S. c #928D83",
"D. c #998F82",
"F. c #938E8A",
"G. c #8C9582",
"H. c #8E9983",
"J. c #8F9A8A",
"K. c #939184",
"L. c #9C9583",
"P. c #919B85",
"I. c #9E9984",
"U. c #95928B",
"Y. c #9B948B",
"T. c #939D8A",
"R. c #9E998B",
"E. c #888B97",
"W. c #8E9097",
"Q. c #969491",
"!. c #9B9792",
"~. c #9D9A94",
"^. c #999D97",
"/. c #A29782",
"(. c #A49B83",
"). c #AA9D84",
"_. c #A2978A",
"`. c #A49D8B",
"'. c #A99E8A",
"]. c #A29D94",
"[. c #AA9E92",
"{. c #A29E99",
"}. c #97A08A",
"|. c #99A18E",
" X c #85A396",
".X c #8BA797",
"XX c #8AA69A",
"oX c #82AB9E",
"OX c #8DAA9D",
"+X c #93A194",
"@X c #9AA391",
"#X c #94A89B",
"$X c #A5A185",
"%X c #ABA186",
"&X c #A6A18B",
"*X c #ABA38C",
"=X c #B1A68E",
"-X c #A6A194",
";X c #ACA592",
":X c #AFA995",
">X c #A6A39B",
",X c #AAA59B",
"<X c #ACAA9B",
"1X c #B0A793",
"2X c #B0A995",
"3X c #B2AC9B",
"4X c #868FA5",
"5X c #85ADA2",
"6X c #8CAEA4",
"7X c #93ADA1",
"8X c #87B0A4",
"9X c #8BB1A6",
"0X c #8DB3A9",
"qX c #95B1A5",
"wX c #99B2A6",
"eX c #92B6AB",
"rX c #9AB3A8",
"tX c #94B8AE",
"yX c #97BAB1",
"uX c #9ABDB4",
"iX c #A7A5A1",
"pX c #A9A5A0",
"aX c #ACA9A2",
"sX c #B3AEA2",
"dX c #B6B1A3",
"fX c #B8B4AA",
"gX c #9CC0B6",
/* pixels */
"o X . o % . . o # . . o # . . o o . . @ @ . . o # . . o # . . o o . . o # . . o @ . . o # . . o @ . . @ @ . . # @ .   o # .   X ",
"$.    $.&.    %.-.. . *.$.    $.*.. . $.&.. . &.&.. . %.:..   *.$.. . $.&.  . $.*.. . *.$..   $.$..   $.&.. . $.:.. . *.:.. . $.",
"X.X . X.O.X X X.+.X X @.O.X   O.+.X X O.O.X X +.+.X X X.@.X . O.@.X X ..X.X X X.+.X X @.+.X X ....+ X O.@.X . O.+.X X +.@.. . +.",
".  . .X    . .X . o. .. .  .o.. . o. .O .  . .. O o.X.. O  . .X . .. .. .  . .X .  . .. . o. .. X  .o.. .  .... . o.o.X .  . .X ",
". :.:..   :.:.  . :.>..   >.:.. . :.:.. . :.:.  . :.>..   >.:.. . :.:..   &.>.  . :.:.. . >.:.    :.:..   :.:.. . :.:.. . :.:.o ",
"@ # o # @ # o # # o o # # o o # # # o o # o o o @ @ o # # # o # # o X # @ # o # # o o # # # o @ @ o o o # o o o # # o # # # o o ",
":.. . :.:..   :.:.. . :.:.. . :.>.. . :.:.. . *.:.. . >.>..   :.:..   :.>.  . :.:..   :.:..   :.>.. . :.:.O . *.:.    :.>..   &.",
" .. X  ...X X  .o.X . o.X.. X X.X.. X o.o.. . &  .X . ..X.X X o. .+ X  .X.X X ..X.. . o.X.X X ..o.X X o.X.. .  .o.X X o.X.X X o.",
". X.O.. . ..O.. . X. .. .  .@.. . ..... . ..X.. . X.+.. .  .O.. . ..@.. . ..O.. . ..... . ....X . X.... . ..X.. . X.X.. . X.O.X ",
". *.*.. . %.:.  . *.*.. . *.:..   *.:..   :.:.. . :.:.. . :.:.. . *.:..   :.:..   *.:.. . *.:..   *.:.. . %.-..   :.:..   :.-.X ",
"$ o X # % # o @ # o o # # o X % % o o @ @ o o @ % o X @ % X o @ # o X # % # o # @ o o # @ o o @ % o o @ @ o o % % o + # % o o @ ",
":.. . >.>.. . :.>..   >.<.. . :.:.. . :.>.. . :.:.. . >.>..   >.<.. . :.>.. . >.<.. . :.>.. . :.>.. . >.<..   >.:.    :.>..   %.",
"& X X * * X X &  .X X & * X X & * X X  .* o X * & X X &  .X X & * X X & * X X & & X X & * X X &  .X X & * X X & * X X *  .X X & ",
". @.@..   X.@.. . @.O.. . @.@.. . O.@..   O.O.    O.O.  . @.O.. . @.@.. . @.@.. . @...  . @.@.. . @.#.. . O.O.    O.O..   O.O.  ",
"+ -.-.O O -.-.O   -.1.O O 1.-.O O 1.:.O O -.-.O O -.-.O O -.;.O . -.-.O O -.-.O . -.-.O . 1.-.O O -.-.O O -.1.O O -.-.O O :.&.+ ",
"; = - < , - - , ; = = > ; = = > , - - < : = = , , - - ; > = = ; ; - = > > - - , : = = > > - = , : - - , ; = = ; , = - : < - = ; ",
"l.e.u._.].g.a.I./.6.u.l.x.e.e./.(.g.g.].(.u.u.Y._.u.a.L.l.u.e.z.l.u.f./.L.s.g.'.l.u.e.z.b.s.s.(./.f.g././.f.s.I.(.u.s.I.`.u.u.d.",
";X`.].aXaXiXiXaXaXpX{.`.'.'.&X:X:X>X-XiXaXiXiXiX<XiXpX].`.*X*X=X*X:X:X3X2X;X<X:X=X;X$X*X=X&X*X1X2X;X'.;X2X,X*X:X<X,X;X:X2X;X'.=X",
":X-X~.>X{.pXiXpXpXpX{.g.L.&X;X:X:X:X@X>XpXiXiX,X{.,X,XU.U.;X;X=X2X3X3X2X3X3XdX3X:X2X=X%X;X:X;X2X=X*X&X'.;X2XsX3X3X3X2X*X=X*X=X*X",
":XR.Z.S._.Y.Y.!.Y.!.C.4.s.(.*X:X:X-XU.C.F.Y._.Y.Y._.F.6.g.'.*X1X2X:X;X:X<X3XaXpX<X;X*X%X*X=X:X*X&X`.).c.'.;XsXpXaX<X'.`.).%X*X*X",
"*XY.] ' 6.6.6.y.6.6.^ K u.b.'.*X;X`.C.R 6.6.6.6.6.6.6.J q.(.*X*X*X*X'.;X,X>XF.S.Y.~.&X&X$X*X*X*X(.(.n.b.'.{.~.F.F.!.R././.).$X$X",
"/.g.~ ' T P T 3.4.3.] R k./.&X'.`._.a.U ] c T T ^ 3.6.J t.l.).$X(./.(._.>X7.C s J i.Y.I.$Xn.$Xb.z./././.;XF.D s d ] !.L.).b.).(.",
"v.f./ | f M.} A.A.Q / / k.I.(.`.`.(.S.] ] L M.5.4X5.5.W y.l.b.l.v.l.I.L.i.S B u S J B.e.b.l.b.b.v.v.b.L.C.R B t C S { i.l.b.l.l.",
"j.d.6.6.T 4XN.B.B.T 5.t.l.b.b.b././.L.7.5.} 4X7.4X) 4.Q h.l.x.r.j.j.I.a.' u C r N y _ / l.b.j.j.r.x.b.f.{ D B u t t ~ ~ l.b.j.r.",
"x.j.u.i.Q E.N.N.M.b 5.y.b.(./.b././.(.p.4.7.W.} M.S 6.] s.z.c.j.j.v.$Xa.| R L s B S N.i.$X$Xj.j.r.x.n.s.~ J t q 5 e R W l.b.x.j.",
"x.j.s.i.b N.) A Z c 5.q./.$X%X%X).).z.i.4.T N.S m.i 4.4.k.(.).l.x.b.;XR.Q.C.} ] ) C.Q.Y.*X&X).c.b.b.b.j.i.c 3 2 1 2 R 4./.).b.c.",
"r.r.w.t.b P i e N b 4.3.(.$X*X&X).b.l.y.4.J A r N t 4.3.l.(.$X).c.b.;X-X{._.C.S.C.Y.>X;X;X*X%X$Xn.b.x.j.a.J 2 3 2 3 ^ y.`.%X$X).",
"x.j.w.y.c Z N 0 0 c 4.4.v.b.&X:X&X'.I.g.F.] M.( m.) U.p.R.;X;X;Xb.l.$X$XQ.F.S.S.Z.U.Y.`.&X(.(.).b.j.j.j.F.] L P L L | t.b.b.$X(.",
"b.l.w.t.f 0 6 6 6 J 4.3.d.x.&X,X-X-X>X!.>XE.W.E.E.E.,X!.{.>X>X-X`.(.$XL.a.g.7.V.i.Z.i.I.).v.b.).b.z.x.r.~ F G F F F H / j.x.b.$X",
"b.b.y.6.s 4 5 4 4 f 5.3.d.x.&X-XaX>XaX^.aXY.^.U.^.!.pX{.,X,X<X>X`.(.(.l.p.a.i.7.0.a.i.I.l.z.b.b.b.b.j.e.x y a V p p p W r.l.$Xb.",
"/.l.g.C.Y N e N N T S.6.d.v.&X-X<X-X<X~.>XS.!.S.!.F.{.{.,X,X,X-X/.l.u.6.q.y.4./ 4.t.t.y.u.l.b.z.l./.b.f.W E W ~ E _ E t./.`.`.b.",
"/.l.U.].F.p.6.C.6.F.].D.l./.&X'.;X`.>X{.>XU.].F.!.Q.,X{.].'.&X&X(.l.4.W Y n W n v c K Y / g.(./.(.(.'./.k.j.k.k.g.D.Y.R.;X&X$Xb.",
"v.s.F.^.].!.!.~.!._.!.u.u.l./.'.*X].{.^.iX^.>X{.{.^.>X].R.I.&X_./.l.t.W E E W ^ W Y Y W q.g.b.z.'.'.'._.b.b.l.l.v.(._.].,X$X/.v.",
"d.y.5.) U U U R U U ) W y.l.(.`.;X_.].V.~.V.U.| A.V.!.7.Y.I.`.'.v.l.L.u.p.y.p.u.y.6.y.p.k.L.b.b.(._.;X;X$Xb.b.v.x./.*X-X*X`.b.x.",
"l.y.~ F C C V V B a H ^ u./.'.'.;XR.~.V.^.| C.[ C.B.~.| ~.|.`.`.v.).$X(._.Y.(./.l.l./.l./.`.).b.(.`.;X[.&X&X/./././.'.;X;X&Xb.x.",
"b.f.t.' ' M.` ( U K ~ t.L.&X].R.Y.F.U.i.U.i.C.| p.t.K.t.g.K.L.Y./.`.&X&X;X;X2X'.b.b.`.b.&X*X&X'.(.(.*X`.;X,X*X&X'.).'.;X:X*X&X).",
"(.x.k.g.K.Q.Q.F.Z.u.a.g.(.-X-XZ.u.4.4.3./ 6.i.i.t.5.5.Q Q 9.t.g.(.'.'.&X:X:X3X:X)./.(./.*X;X;X:X'.(.`.$X:X<X:X-X&X(.&X&X,X;X;X*X",
"'.)./.L._._.].-X_.R.(.l./.(.`.S.7./ ^ ^ { i.A.A.i.i.{ / Q Q { S.`.*X;X&X`./.(.`.;X'.).x.b.b.].2X`.(.(.`.;X,X<X<X&X'.'.'.;X;X'.-X",
"*X[.'././.[.iXaXiX;X`.v.v.v.R.Z.0._ K L ~ i.A.A.A.A.{ Y v v ~ i._._.K.y.l l l 6.g.S.y.b l l e.`._.`./././.[.<X<X<X<X`._.`.(.*X-X",
";X[.'.'.'.F.V.C.Q.{.`.v.v./.&XY.K.p.4.4.p.U.A.{ B.F.A.q./ 4.p.a.g.6.R H w w w a H L x w w w b 3.D.`./.b.'.$Xz.h.h.}.$X/.(.`.;X&X",
"[.[.[.].F.R d D ' Q.Y././.'.-X-X'.L.L.L.`.F.R D R 7.U.g.v./.(.Y.3.l d C F p a h V F h a h p x 2.6.].(.(.$Xh.m x m 9.z.z.|.*X-X;X",
"[.[.].Y.^ t r i S | V.R.[.;X;X*X(.v././.U.] t q i f V.p.`.;X;XI.3.l W [ [ [ [ [ ' [ [ [ [ _ b 2.y.R.&XR.h.M u u x x 9.h.$X*X;X&X",
"`./.L.] D C i t t K E Y.;X[.'.v.l.x.L.k.{ D C S t t U ' R.-X-XY.f.y.| p.Z.i.a.a.i.Z.C.i.p.t.y.y.f./.(.k.9.z J f i t m ! l.`.(.(.",
"x.x.l.{ T i 8 8 5 P ' Y.;X].b.j.x.x.b.f.] D i 8 9 e R ] `.;X'.k.f.q.0.p.9.0.i.a.p.Z.t.i.t.i.i.6.6.l.R.G.8.z s w q q m ! l.b.l.b.",
"j.x.l.i.J 5 2 1 1 P 5.I.*X&Xv.j.x.x.b.k.7.f 3 2 1 3 U i.].;X'.L.f.t.5.p.t.0.i.a.i.h.t.t.0.i.p.u.y.L./.l.q.z 8 8 7 8 z q.b.b.l.b.",
"x.x.v.a.T 9 8 3 5 ) p./.*X&X).b.x.x.x.j.Z.J 3 8 3 5 ' p.;X-X*XI.g.f.{ p.5.9.i.Z.p.Z./ 0.9.t.i.u.w.v.b.l.h.m 8 q q q 8.q.(.$X(.b.",
"b.x.j.u.) C d C S ] y.z.'.&X&X$Xb.x.j.j.C.R t i u i [ p.*X&X*XY.D.S.7.p.i.p.p.a.p.Z.t.p.i.i.Z.g.u.j.x.j.h.m g k g k 8.q.).b.$X&X",
"n.x.j./ L L L L L I ~ j.b.).$X(.).b.j.d.{ U I I I I U / )./.(.I.Y.g.i.U.U.K.K.Z.p.G.K.K.K.C.S.L.s.z.j.j.! m j j j j z 9.l.b.b.`.",
"$X$Xz.v y y h F p h Y l.c.c.).$X%Xb.x.e.x y p p h V h Q j.l.).l.3.3.i.K.K.K.K.S.p.K.K.K.K.a.w.2.e.(.$Xl.m h h h h h a M d.d.v./.",
"%Xn.l.q.E W ~ ~ ~ ~ q.b.b.b.b.b.b.b.v.s.Q v E E ' ~ ^ u.j.l.b.j.2.l / Z.S.G.K.S.a.S.S.G.K.p.2.2.q.*X*X$Xt.! ~ ~ [ [ / t.v.v.b.b.",
"n.n.c.k.L.L.l.k.s.s.l.v.b.n.$Xn.`././.v.k.k.l.k.L.D.l.L.b.).$Xl.w.3.{ Z.S.Z.Z.G.i.G.G.S.a.p.3.3.k.:X:X;Xz.l.l.L.I.L.Y./.(.).).b.",
"n.b./.%X:X:X*X*X$Xb./.b.n.%X$X*X'.'.'.'.*X*X*X*X;X*X;X&X%X%X$XI.g.y.i.Z.G.K.S.G.p.Z.Z.K.G.a.p.a.P.3X3X:X*X%X*X=X:X*X;X;X*X$Xn.b.",
"%X&X'.;X:X:X;X*X*X$X*X$X$X*X*X*X;X'.;X1X;X'.=X=X*X2X3X*X*X=X%X(.g.t.| K.G.K.S.a.p.K.K.K.G.a.p.y.K.3X3X3X:X;X=X:X1X;X;X;X*X$X).b.",
"*X:X:X3X3X<X2X2X2X:X=X=X*X*X=X:X2X2X2X3X2X2X2X1X*X3X2X=X1X1X:X(.g.s.p.K.k.g.g.S.Z.Y.L.k.g.y.y.a.g.,X:X3X2X2X:X:X2X2X2X:X;X*X%Xb.",
"2X:X:X2X2X2X3X3X3X3X:X*X$X=X*X:X2X2X3X3X3X3XdX3X3X3X3X2X2X:X=XI.[ ' [ 7./ W Q { { i.0.Q M Y E ~ t.&X;X*X<X3X3X3X:X2X:X;X:X*X%X%X",
"2X=X:X:X2X2X3X3X3X2X:X*X*X%X*X*X1X1X2X3X3XdXfXfXdXdXdX3X=X=X=XT.I V G I I I I I I I I h F F V V [ /.$X&X:X3XdX3X:X*X&X(.;X;X*X=X",
"1X*X*X*X=X*X:X3X:X2X=X%Xn./.).'.=X%X=X2X3X3XdXfXdX3X3X=X%X=X*XI._ F L U } ` ` _ U I K U U U I G p./././.*X1X3X3X;X/././.'.=X'.=X",
"=X=X'.).%X).*X:X:X=X%Xn.c.v.(.).=X%X(.).=X=X1X2X2X2X=X%Xn.).%X/.g.u.g.g.g.F.K.L.g.g.u.s.s.a.S.D.L.).v.v.b.%X2X2X;X'.).).'.'.'.%X",
"3X2X'./.b./.=X2X=X*Xn.c.c.c.%X%X%X%X).).n.).=X=X=X=Xn.n.n.n.).)././.).n.n.%X*X*X%X).c.c.c.b./.).(.).).v.v.n.=X=X2X2X'.'.=X).%X*X",
"3X2X1X'.'.'.=X;X=X*X%Xn.c.n.=Xn.).=X%X%X%X%X=X=X*X=X%X).).%X%X%X).*X=X).%X%X*X*X%X).n.v.).)./.n.(.).*X%X).'.=X=X2X3X2X,X2X=X=X'.",
"^.^.T.+X+X+X+X@X@X@X}.J.}.}.z.h.H.J.J.J.}.T.T.P.P.U.P.J.}.P.}.P.R.}.}.T.T.}.}.P.J.G.G.H.H.H.H.K.I.R.T.T.}.}.@X}.}..X|..X^.T.J.G.",
"5XOX6X6X5XqXwXwXrXrXqXqXrX#XXXoXXX X X XOX7X7XOXOX#XXXOXOX.XqXqXqXwXwXwXwXwX#X.XXXXX X X X.X.X#X#X7X6X0XqXqXtXwXqXqXgX9X5XOX9XB.",
"gXgXtXuXyXuXyXyXuXuXuXgXgXyXtXtXtXeXeX0XeXyXyXyXtXuXeXtXyXyXuXuXyXgXuXgXgXgXgXtXtXtX0XeXqX0XtXyXyXuXtXyXgXgXgXgXgXgXgXgX0XgXgXgX",
"B.B.5X0X9XoX5X5X5X5X0X9X9X8X8X0X9X9XtXeX5X9X9X9X9X0XoXoX8X0XoXoXoXoXoX0X0X0X8XoX8X8X0XtXeX5X9X0X9X9X0X5XoX XoXoX8X9X8X8X8X0X0XB."
};
