/* XPM */
static char *_ae62d36c9494ff2f3652a43e0cb2d04CXvPkLw9Ig9HePFC[] = {
/* columns rows colors chars-per-pixel */
"64 64 225 2 ",
"   c #213F12",
".  c #3E3614",
"X  c #3E3C19",
"o  c #443712",
"O  c #433B17",
"+  c #4A3B15",
"@  c #423C1A",
"#  c #4D3E18",
"$  c #1D4716",
"%  c #1C4B16",
"&  c #1E4B19",
"*  c #195318",
"=  c #1B5319",
"-  c #234416",
";  c #224916",
":  c #2B4816",
">  c #2C4A17",
",  c #224B1B",
"<  c #314E18",
"1  c #3A491C",
"2  c #23551C",
"3  c #2D501A",
"4  c #34541A",
"5  c #3A551E",
"6  c #355A1D",
"7  c #3C5A1C",
"8  c #046F1D",
"9  c #0C6C1E",
"0  c #13661D",
"q  c #126A1D",
"w  c #06731E",
"e  c #09741E",
"r  c #0B791F",
"t  c #3E671C",
"y  c #294E24",
"u  c #265223",
"i  c #2C5324",
"p  c #265A21",
"a  c #2C5A24",
"s  c #315626",
"d  c #3B5423",
"f  c #345D25",
"g  c #3A5C24",
"h  c #3D5E29",
"j  c #0A6E23",
"k  c #146B21",
"l  c #1C6E25",
"z  c #077521",
"x  c #0A7522",
"c  c #077820",
"v  c #0B7A23",
"b  c #0D7A25",
"n  c #0E7D25",
"m  c #0F7D29",
"M  c #127322",
"N  c #1D7727",
"B  c #117D25",
"V  c #137B29",
"C  c #1B7D2B",
"Z  c #2A6426",
"A  c #296926",
"S  c #2B6B26",
"D  c #216C29",
"F  c #336325",
"G  c #396225",
"H  c #336B26",
"J  c #396927",
"K  c #3E632D",
"L  c #336C2A",
"P  c #3A6C2A",
"I  c #26742B",
"U  c #247B2D",
"Y  c #2C7C29",
"T  c #33742A",
"R  c #3B7429",
"E  c #377929",
"W  c #3A7B2C",
"Q  c #3A6931",
"!  c #257B30",
"~  c #3A7B33",
"^  c #424316",
"/  c #4D4217",
"(  c #43431A",
")  c #424B1C",
"_  c #524316",
"`  c #5C4614",
"'  c #594719",
"]  c #5C4A19",
"[  c #435D1E",
"{  c #61450E",
"}  c #664B15",
"|  c #694D14",
" . c #634E18",
".. c #6E5312",
"X. c #695A15",
"o. c #6C5318",
"O. c #735511",
"+. c #785713",
"@. c #765914",
"#. c #7A5B15",
"$. c #74571A",
"%. c #785718",
"&. c #765B19",
"*. c #7C5D18",
"=. c #47621D",
"-. c #56691E",
";. c #6F651C",
":. c #7B6219",
">. c #7E6119",
",. c #444520",
"<. c #4B4B22",
"1. c #5B4D24",
"2. c #445825",
"3. c #6E5925",
"4. c #446223",
"5. c #4C6A23",
"6. c #486827",
"7. c #42642E",
"8. c #466C2A",
"9. c #506D24",
"0. c #4C7324",
"q. c #487826",
"w. c #4C722C",
"e. c #4D7A29",
"r. c #547827",
"t. c #55752C",
"y. c #537C2C",
"u. c #597E2A",
"i. c #446932",
"p. c #4C6D31",
"a. c #437934",
"s. c #527633",
"d. c #547931",
"f. c #57763A",
"g. c #636D23",
"h. c #6B6B24",
"j. c #7E6221",
"k. c #786528",
"l. c #66762A",
"z. c #70782F",
"x. c #787B32",
"c. c #805F18",
"v. c #816219",
"b. c #86661D",
"n. c #856621",
"m. c #866923",
"M. c #8B6B24",
"N. c #85692A",
"B. c #8D6E29",
"V. c #916E27",
"C. c #916F29",
"Z. c #83732C",
"A. c #8F712A",
"S. c #927026",
"D. c #93742B",
"F. c #98752E",
"G. c #97782E",
"H. c #99792F",
"J. c #8A6D31",
"K. c #877C33",
"L. c #957631",
"P. c #9A7731",
"I. c #957932",
"U. c #9C7A32",
"Y. c #9E7D38",
"T. c #A17D35",
"R. c #A27E39",
"E. c #0E8127",
"W. c #0F8029",
"Q. c #118126",
"!. c #138326",
"~. c #1A8827",
"^. c #14832A",
"/. c #1B852C",
"(. c #1B8A2C",
"). c #288127",
"_. c #22842D",
"`. c #2F852A",
"'. c #218A2D",
"]. c #2E892B",
"[. c #34842D",
"{. c #39862E",
"}. c #318D2D",
"|. c #35912F",
" X c #278631",
".X c #258C33",
"XX c #3C8433",
"oX c #348C32",
"OX c #3A8E30",
"+X c #2C9136",
"@X c #359131",
"#X c #3B9332",
"$X c #56812A",
"%X c #5C842D",
"&X c #5C8B2B",
"*X c #488837",
"=X c #568635",
"-X c #5A8332",
";X c #548A39",
":X c #419534",
">X c #43953A",
",X c #4B923F",
"<X c #45983E",
"1X c #638C2F",
"2X c #63912F",
"3X c #628536",
"4X c #648C31",
"5X c #64863A",
"6X c #698939",
"7X c #659232",
"8X c #6A9433",
"9X c #6D963C",
"0X c #6C973C",
"qX c #72983F",
"wX c #4D9244",
"eX c #4F9245",
"rX c #4A9A42",
"tX c #6B8C42",
"yX c #6E9241",
"uX c #729545",
"iX c #749942",
"pX c #789C45",
"aX c #848339",
"sX c #A38137",
"dX c #A28139",
/* pixels */
"x j x b b m z z x x e x v r r r w z w z z 8 w v b z w w r E.E.E.v r z w w w w c v e w w w x z b m W.W.W.n v v Q.n e e c v b b x ",
"j j x b b b z j x x B v v M x w w w w z x 8 z ^.E.n z z r E.v Q.v x 9 8 w c z v v v E.w w z z m b m v n ^.v Q.r e w z v z w x x ",
"z j x b b b b b x v v v v x x x x x z z x w v B m v n n v v n n v v x x v E.n v r v ^.^.Q.b x b B B Q.!.~.Q.v v w w e x x x w e ",
"m m b b b b C /.B n v v c v x V C x x c w w x x V C v c v v b x w n _.^.v E.E.n x B '.(.Q.n m ^.^.B !..X^.Q.v v e r e v V N x v ",
"m m W.m n v ^.N 9 v c v v z z C l 9 x v x x x b _.l k w x x x b b /._.M v n E.Q.^./.+XI 0 Q.!.!.Q.Q.(..Xk q B n r r x b C N k x ",
"m m W.V Q./.U & * x c v v v V I , % 9 v x x b U I y = j w x v V /. Xp & x Q.!.!.(..X_., % x !.Q.Q.~..XU & & M v M v V _.! * $ k ",
"* k x V C D , : 4 2 9 x b N l y : 4 * 9 x x C l , < 4 * q 9 x C I i : 4 2 q !./._.I % ; 4 2 q n ^.C l $ : 6 , q M M C I 2 - 4 3 ",
"4 : ; & &   4 t.u.7 $ & & &   < 0.$X7 ; % & $ - < w.u.7 : ; $ ; : < 0.u.=.; % = %   : 0.$X=.: , * % - : 0.%Xt : ; & & - : 5.u.6.",
"-Xt.4.[ 4.9.%X8X2X&Xw.4.7 4 t r.&X8X1Xt.2.7 7 4.y.&X7X%Xt.6.[ [ 5.u.8X8X1Xt.2.5 6 t 0.&X8X1Xt.6.[ 7 4.e.&X4X4Xt.6.2.[ 5.u.8X8X1X",
"0XuX5X4X8X8X8X7X8X8XqX3X%X&X&X&X7X7X8XiX5X3X1X2X2X1X7X8XuX5X4X8X8X8X8X8X7XqX3X&X&X&X&X2X2X7XqX6X3X1X1X7X7X7X8XuX6X1X7X8X8X8X8X8X",
"pXtXK %X8X8X8X8X7X0XuX7.q.&X&X2X7X7X0XyX7.s.7X7X2X2X8XiXuX2.-X8X0X8X7X7X0XpXp.w.&X&X&X2X7X0XiX7.p.7X8X2X2X7XiXuX7.y.8X8X8X7X8X7X",
"tX2.y 4.1X8X7X8XyXuXf.i F q.&X1X7X0XyXp.i f $X2X7X7XuXtXi.y J %X7X7X8X9XuXf.i f q.&X2X2X0XuXs.u a y.&X7X7X9X9Xp.y h %X7X8X8X9XiX",
"s u Z F G w.e.d.s.7.i L H F 8.u.-Xs.7.i A Z g w.$X-Xs.f u Z F G 8.y.s.s.7.i F T F 8.y.-Xd.7.u Z A g w.y.3Xd.h u a H G 8.e.y.d.p.",
"a S }.[.S i s i i a T #XOXT p 6 s y u A `.`.L a s f i i S [.[.S a i s i i T OX#XT a i s i u A `.`.I s s s u u Z [.[.I a u s i i ",
"{.}.@X@XOXXX~ Q T {.#X#X#XoX~ ~ L A ).].|.}.oX[.~ L L [.OX|.|.OX{.a.Q T {.#X#X#X}.{.~ L S Y ].|.|.|.{.~ L L [.OX@X#XoXXX*XQ L [.",
"#X#X@XOXOXwXwX2.W #X:X#X#X#X<XwXK T ].].}.@X#X<XwXd P oX#X|.|.#X<XwX2.R :X#X:X#X#X>XeXi.F }.].}.}.@X<XwXG g OX#X@X|.@XrXeX2.P #X",
"{.|.@X#X<X*Xh X d W #X#X#X>XwXi.,.<.R ].}.OX<XwX4.^ ) E @X|.#X>X*Xh @ ) q.:XOXOX#X,Xp.1 ^ H `.}.@X>X,Xi.@ ) R OX@X#X>X>XK X 1 P ",
") F E E H 1 O _ _ ( h P P P d O ' 3.<.h E W P d 1 {  .) F E W P d ,.] ` O g H F P d X _ { 1 6 R ~ ~ 2.X _ ] ( g T W P 4 X _ ' / ",
"` / ^ X O + ` $.$.{ # O O o o ` $.N.k.1.<.<.@ # X.@.@.../ ( ( @ # ] @.#.` o o . o o ` ..O.` / <.<.<.<.` o.@.| # ^ X X + ` $.&.o.",
"#.o.| | | o.$.%.%.$.O.| } } ..$.j.J.L.J.k.k.&.&.>.v.>.>.#.X.o.o.&.&.v.#.+.| { { { | O.@.O.@.n.N.J.J.J.J.n.*.#.@.o.| | o.&.&.&.&.",
"#.#.*.*.#.#.#.%.#.#.#.%.+.+.+.#.j.A.P.P.U.L.B.b.v.v.v.>.v.v.>.v.v.c.c.*.#.O...O.O.O.O.+.O.@.m.T.R.R.R.R.P.C.m.b.b.*.*.#.#.:.&.*.",
"@.@.&.&.%.#.%.%.%.%.+.+.@.O.@.#.m.A.P.P.P.P.B.:.v.v.v.v.>.>.>.>.v.v.c.v.#.O.O.O.O.O.+.O.O.@.M.R.R.Y.R.R.T.U.D.D.B.B.m.b.*.&.#.&.",
"@.@.@.%.*.*.*.%.&.%.+.@.@.@.+.#.c.L.P.P.P.P.G.v.v.v.c.c.>.>.>.>.v.v.c.v.c.+.....O.O.+.@.@.O.D.R.R.Y.R.R.T.T.S.D.A.D.D.V.B.m.:.&.",
"#.@.#.%.#.*.*.*.#.#.#.+.+.+.+.@.v.C.P.P.P.P.S.m.v.v.v.v.v.v.v.v.v.v.c.v.#.+...O.O.O.@.@.@.&.B.R.Y.T.R.R.R.T.U.D.S.D.D.D.G.S.M.j.",
"B.#.@.@.%.*.*.&.#.%.*.@.@.O.+.@.n.P.P.P.U.H.H.m.v.v.v.:.>.*.v.>.v.v.v.c.c.+.O.O...O.@.@.@.O.C.R.dXdXsXdXdXdXI.L.D.D.D.S.D.G.S.:.",
"U.m.:.#.&.#.*.*.:.*.*.#.@.@.#.#.j.C.P.P.P.P.H.S.b.v.b.v.v.v.v.>.v.v.c.c.v.c.O.O.O.O.@.@.#.#.L.dXdXdXsXdXdXdXdXD.D.D.D.S.D.S.V.b.",
"Y.D.m.:.*.@.@.*.&.&.#.@.@.@.%.%.n.B.P.P.P.P.P.P.G.B.b.:.v.:.*.v.#.:.v.c.v.#.O.O.O.O.@.@.@.*.D.dXdXdXdXdXdXdXY.A.D.D.D.D.S.H.S.m.",
"Y.D.D.n.%.#.#.#.&.&.*.&.&.*.%.&.n.P.P.P.U.U.U.U.H.U.D.M.b.v.v.v.v.v.c.c.v.#.+.O.O.O.@.:.@.@.D.dXdXdXdXdXdXdXdXP.D.D.D.D.G.D.D.S.",
"U.D.D.V.b.#.%.%.#.&.*.%.%.%.&.&.C.P.P.P.F.P.P.P.P.U.P.D.n.v.v.v.v.c.c.c.*.#.#.O.O.O.O.@.#.#.B.T.sXsXU.dXsXdXsXD.D.G.G.D.D.D.D.V.",
"P.D.D.D.B.c.*.&.&.&.*.%.&.*.$.n.P.P.P.P.P.P.U.U.U.H.I.L.M.v.:.v.v.c.:.v.v.c.O.O.O.O.O.+.@.#.D.sXdXI.dXI.Y.U.H.D.S.D.S.D.D.D.A.m.",
"F.D.D.D.D.m.b.:.#.:.*.*.*.*.v.S.R.P.T.P.P.U.U.U.U.H.U.D.M.v.v.v.:.v.v.c.#.:.+.O.O.O.O.O.O.#.D.Y.T.Y.Y.I.P.H.G.D.G.D.D.D.D.D.S.M.",
"D.D.D.D.D.D.M.m.:.v.c.c.v.:.v.D.P.P.P.P.P.P.U.U.U.I.H.D.n.c.*.v.:.c.v.v.v.v.O.O.O.+.+.O.O.#.D.U.Y.U.Y.I.G.D.D.D.D.D.D.D.D.D.A.b.",
"G.D.H.D.D.D.V.A.n.b.v.*.v.c.v.D.U.U.U.U.aXsXG.sXH.sXD.S.v.c.>.>.v.c.v.v.v.#.O.O...O.O.O.O.*.G.I.U.sXH.I.D.A.D.D.aXS.S.D.sXS.Z.b.",
"S.D.S.D.D.D.D.D.M.n.n.v.v.c.v.C.H.H.F.H.H.G.G.G.G.H.D.b.v.c.>.>.v.*.>.>.#.#.@.O.O.O.O.O.+.v.I.H.U.U.I.D.D.D.D.D.S.G.G.D.S.S.A.m.",
"D.D.S.D.D.K.D.D.M.M.M.n.v.v.v.D.H.T.H.U.H.U.G.sXsXG.S.v.v.v.v.>.c.v.>.v.:.:.O.O.O.O.O.+.+.S.G.U.sXH.I.H.D.D.D.D.G.S.G.S.D.A.A.m.",
"D.D.H.D.D.D.D.B.M.B.M.m.n.v.v.V.F.F.H.H.H.sXsXH.sXG.S.v.c.v.c.c.c.v.>.>.:.:.O.O.O.O.+.O.#.S.H.H.G.sXU.U.G.G.D.G.S.G.D.G.D.A.M.A.",
"aXG.G.S.P.D.A.B.C.B.M.M.M.v.v.M.F.F.G.P.U.I.sXsXG.H.m.:.>.>.v.>.v.#.#.>.#.#.O.O...O.O.@.:.D.sXU.sXH.H.H.H.K.A.A.G.D.D.D.A.A.A.S.",
"G.S.S.H.D.D.D.A.C.M.M.M.n.b.c.n.F.T.U.U.H.I.H.H.H.D.b.:.>.>.>.c.v.v.v.v.v.#.O.O.O.O.O.@.@.A.H.H.H.sXG.sXU.H.I.G.G.G.D.D.D.D.A.B.",
"D.D.G.G.D.D.C.C.C.M.M.n.b.c.*.v.D.P.P.U.U.U.sXU.P.D.m.:.>.#.#.>.>.v.v.v.>.#.O.O.O.O.#.&.:.I.sXG.H.H.H.H.sXU.H.G.D.D.D.G.A.S.A.B.",
"sXH.D.S.D.D.C.C.C.V.M.M.v.*.v.:.D.P.P.U.U.H.H.U.U.H.b.>.v.*.v.>.v.v.>.>.>.O.O.O...#.&.*.m.H.G.G.H.sXU.sXH.H.H.H.D.D.D.D.A.A.A.A.",
"sXS.D.D.D.D.D.Z.S.B.M.M.v.v.c.v.B.D.P.P.P.U.P.U.sXG.b.>.v.>.v.v.c.>.>.>.>.@.O.O.O.O.@.#.S.G.H.sXsXH.H.H.sXG.sXH.D.D.D.D.D.D.S.S.",
"sXS.D.D.D.D.D.D.D.B.B.m.v.:.v.v.b.D.P.P.P.U.I.U.U.H.m.:.>.>.v.>.v.c.c.>.>.O.O.O.O.O.#.>.S.sXsXH.H.H.sXsXG.sXH.D.A.D.D.D.D.Z.A.A.",
"G.D.D.D.S.aXD.D.A.B.B.n.:.*.*.*.*.C.P.P.P.P.U.H.H.H.m.>.>.>.>.>.>.v.c.v.:.O.O.O.O.O.O.v.G.H.H.sXH.H.H.H.G.sXH.H.G.D.D.D.aXD.S.A.",
"sXG.G.D.S.D.D.D.S.B.B.b.v.c.v.v.v.C.P.P.P.P.I.U.sXH.b.>.>.>.>.>.>.v.v.>.:.X.O.O.+.+.>.b.G.sXH.H.sXsXsXH.H.H.sXH.H.G.D.D.S.D.A.A.",
"H.H.H.H.H.G.S.S.V.C.B.m.v.c.c.v.v.C.P.P.U.U.P.U.H.H.A.>.v.v.>.>.>.>.>.v.#.O.O.O.O.O.#.S.sXG.H.U.H.H.U.H.G.H.H.H.H.G.G.D.S.D.S.S.",
"sXH.sXH.sXS.D.D.D.B.B.B.b.v.c.c.*.V.F.U.U.H.U.I.H.sXS.>.#.#.v.v.>.>.>.>.#.O.O.O.O.O.;.S.G.sXH.H.H.U.sXU.sXG.sXH.sXG.sXG.G.S.D.A.",
"sXH.sXH.aXD.sXS.D.B.C.M.b.c.*.c.v.m.H.U.U.H.H.U.H.H.V.v.v.#.c.c.>.v.v.>.O.O.O.O.O.O.:.S.sXaXH.sXG.sXsXH.G.sXH.sXH.sXsXA.G.S.D.A.",
"sXH.H.H.sXsXsXD.D.D.C.B.b.*.c.v.v.n.I.P.U.H.T.U.H.H.S.v.v.v.c.c.>.>.>.>.#.O.O.O.O.O.b.sXD.sXsXH.sXsXsXH.sXH.sXG.sXH.sXD.sXsXD.D.",
"H.H.sXH.H.T.T.H.S.D.B.M.v.*.*.v.*.n.P.L.P.Y.U.T.P.P.C.c.#.v.v.v.c.c.c.:.O.O...O.O.@.n.P.U.Y.U.U.G.H.sXG.H.T.T.T.H.H.H.T.H.H.D.D.",
"sXH.sXH.H.T.H.H.D.D.C.M.v.v.*.:.*.n.D.P.U.U.U.P.T.P.C.c.v.v.c.#.:.c.v.v.#.O.O.O.O.@.M.U.Y.U.U.U.H.sXsXG.U.U.U.T.U.T.T.H.sXH.D.S.",
"sXH.H.sXT.U.T.H.S.D.B.B.b.c.v.c.*.n.L.P.U.U.U.Y.Y.U.C.v.#.>.c.c.c.c.v.c.O.O.O.O.O.O.B.U.U.T.T.T.T.T.H.H.H.U.H.T.T.T.H.T.U.U.G.D.",
"H.sXsXH.T.T.F.F.D.D.C.B.n.v.c.c.*.n.C.P.H.T.T.U.Y.U.D.v.v.v.c.v.c.c.:.:.@.O.O.O.O.O.b.U.U.U.U.T.H.T.U.H.T.H.T.T.T.T.T.T.U.P.D.D.",
"H.T.H.T.H.H.H.T.H.D.D.C.n.c.c.v.c.n.B.P.T.T.U.Y.P.P.D.:.*.c.v.#.c.c.v.#.@.O.O.O.O.O.#.S.U.Y.U.U.T.T.P.P.P.T.U.U.H.H.T.U.P.U.H.G.",
"T.H.T.H.H.T.T.H.D.D.B.S.M.c.c.v.c.c.B.L.P.P.P.P.P.T.C.c.*.v.*.*.v.c.c.*.@.+.O.O.O.O.O.v.S.U.T.U.U.H.T.P.H.T.U.U.T.T.F.U.U.P.G.D.",
"H.T.H.T.H.H.U.H.F.C.B.V.M.b.c.*.c.c.M.P.T.F.T.P.U.P.C.v.v.>.*.*.c.c.c.v.+.+.O.O.O.O.O.@.m.H.U.U.U.H.H.P.F.H.H.U.H.P.P.P.P.P.F.D.",
"T.H.H.H.H.H.P.P.F.D.D.C.V.b.*.*.#.c.n.D.T.H.U.P.U.P.C.v.v.v.>.>.>.c.#.>.:.#.O.O.O.O...O.#.A.U.U.H.U.H.T.U.U.T.U.P.U.P.F.T.F.G.D.",
"P.F.P.P.P.P.P.P.F.C.C.C.B.n.#.#.*.*.v.C.P.U.P.U.U.U.V.c.c.v.c.v.#.>.v.>.v.#.+.O.O.O.O.O.O.:.D.U.T.P.P.P.P.T.P.P.P.P.F.P.P.F.F.D.",
"T.T.P.F.U.U.U.P.F.C.C.C.V.b.v.*.*.*.n.D.P.U.P.U.U.H.B.v.c.v.#.*.#.>.#.>.v.>.#.O.O.O.X.O.O.O.m.H.F.P.T.P.P.P.P.T.G.U.T.F.T.F.F.D.",
"P.F.F.T.P.T.P.P.D.D.C.C.N.n.*.*.*.*.v.D.P.U.U.U.U.H.C.*.#.v.>.>.c.>.>.>.c.v.>.#.O.@.O.O.O...O.M.T.F.P.P.T.F.T.P.U.T.H.T.P.P.F.V.",
"T.T.P.F.T.H.P.P.D.V.C.C.m.j.j.&.*.%.n.L.P.U.U.P.H.H.m.*.c.c.c.*.+.:.#.#.#.v.#.>.O.O.O.......O.:.V.T.T.P.F.T.P.T.P.P.P.P.P.T.F.V.",
"P.P.P.P.P.P.P.L.C.B.B.B.n.j.&.%.*.c.v.A.L.I.P.I.F.P.M.#.>.v.c.#.#.>.>.#.c.>.c.c.#.@.O.O.O.O.O...c.C.T.T.T.T.P.P.U.P.F.T.P.P.C.C.",
"P.T.P.P.I.U.L.L.C.N.M.M.N.j.j.*.;.g.g.k.L.I.aXK.P.H.Z.g.g.X.#.*.v.:.>.>.c.>.>.c.#.#...X.......X.O.%.J.P.P.U.P.P.P.I.I.F.F.C.C.C.",
"U.aX;X:X-X6X*X=Xz.N.Z.x.l.t.h.h.$X.X_.q.x.tX@X].u.6X*XC N 0.g.l.q.E -.g.h.q.E -.;.g.E T =.X.-.W Y =.k.J.K.K.P.K.=XW a.3X=X*Xz.Z.",
"6X*X'.(.'./.!.Q.[.u.wXoX/./.`.[.'.!.~._.oX+X~.!./.^.V Q.B B /./.Q.n B C C Q.B N `._.Q.Q.~.U C m V V W *X XOX5X;X/.E.n !.Q.^.U y."
};
