/* XPM */
static char *_f13eb466a1e42adf252e9172eb7d1fbTqNAV4Qu3Fd6PtkL[] = {
/* columns rows colors chars-per-pixel */
"64 64 204 2 ",
"   c #0F7E2C",
".  c #107E2C",
"X  c #0F7D30",
"o  c #107C31",
"O  c #049819",
"+  c #049D1D",
"@  c #00A10E",
"#  c #00AD0F",
"$  c #00B407",
"%  c #00BB07",
"&  c #00B50B",
"*  c #00BC0C",
"=  c #02A515",
"-  c #01AC14",
";  c #03A31C",
":  c #03AC1C",
">  c #0AAD1C",
",  c #00B414",
"<  c #01BB12",
"1  c #0CBB16",
"2  c #02B31B",
"3  c #08B71A",
"4  c #09BB19",
"5  c #0B8524",
"6  c #068B26",
"7  c #0C8E26",
"8  c #0E842B",
"9  c #0D8C2A",
"0  c #10822E",
"q  c #118C2C",
"w  c #079520",
"e  c #0A9425",
"r  c #079B21",
"t  c #0A9B24",
"y  c #0D942A",
"u  c #0D9B2A",
"i  c #11932E",
"p  c #129B2D",
"a  c #0F8331",
"s  c #0F8A30",
"d  c #128432",
"f  c #138C33",
"g  c #1C8939",
"h  c #1C8D3C",
"j  c #0F9B31",
"k  c #129331",
"l  c #149931",
"z  c #1B9936",
"x  c #21963A",
"c  c #06A322",
"v  c #0AA425",
"b  c #04AC22",
"n  c #09AA24",
"m  c #0DA32A",
"M  c #0BAA29",
"N  c #15AE27",
"B  c #11A32C",
"V  c #04B121",
"C  c #0CB122",
"Z  c #15B823",
"A  c #18BC23",
"S  c #1AA334",
"D  c #19AB36",
"F  c #22BF2B",
"G  c #23A93A",
"H  c #27B738",
"J  c #00C10E",
"K  c #00C310",
"L  c #0CC31A",
"P  c #10C11E",
"I  c #17C324",
"U  c #20C328",
"Y  c #25C333",
"T  c #2BC538",
"R  c #30C43E",
"E  c #289942",
"W  c #31964C",
"Q  c #3C9656",
"!  c #2CA545",
"~  c #34A44E",
"^  c #3BAA4F",
"/  c #2CB346",
"(  c #38B948",
")  c #3FA355",
"_  c #3EB351",
"`  c #409B58",
"'  c #47A95C",
"]  c #48B75A",
"[  c #4D9B73",
"{  c #54A86B",
"}  c #59AB6B",
"|  c #4EB865",
" . c #50B76A",
".. c #58AD71",
"X. c #59B478",
"o. c #63AB74",
"O. c #65A778",
"+. c #63B572",
"@. c #66B877",
"#. c #3BC546",
"$. c #40C747",
"%. c #4EC659",
"&. c #56C85D",
"*. c #5BC964",
"=. c #62C86A",
"-. c #6CCA73",
";. c #6BC17A",
":. c #74CD7B",
">. c #7CCF7F",
",. c #74AE88",
"<. c #6CB88D",
"1. c #7AB588",
"2. c #6EA8B2",
"3. c #78C785",
"4. c #7AC98D",
"5. c #7EACC8",
"6. c #80BC8D",
"7. c #8DBA9A",
"8. c #83C28F",
"9. c #86CB8C",
"0. c #88D18E",
"q. c #8AC794",
"w. c #93C89A",
"e. c #8CD493",
"r. c #95D19A",
"t. c #98C5A7",
"y. c #91C6AC",
"u. c #9DD2A2",
"i. c #A3C4AA",
"p. c #A4CBAB",
"a. c #A4D3A8",
"s. c #A5D5AA",
"d. c #A9C8B5",
"f. c #B0CCB6",
"g. c #B2CDB9",
"h. c #ACD6B2",
"j. c #B1D4B5",
"k. c #B6D6BC",
"l. c #BBD5BE",
"z. c #86AFCA",
"x. c #86B1C8",
"c. c #8DB4CC",
"v. c #92B5CD",
"b. c #94BACD",
"n. c #9DBCCE",
"m. c #9BBCD0",
"M. c #A0BCD2",
"N. c #9EC0C9",
"B. c #9FC0D0",
"V. c #ACC9C4",
"C. c #ABC3CB",
"Z. c #B8CDC7",
"A. c #BED4C2",
"S. c #A4C2D2",
"D. c #ACC4D3",
"F. c #ADC6D6",
"G. c #B2C6D3",
"H. c #B5C9D4",
"J. c #BCCBD5",
"K. c #B5CAD9",
"L. c #BCCDD9",
"P. c #BED1D7",
"I. c #BFD0D9",
"U. c #C2D4C5",
"Y. c #C3DAC5",
"T. c #C6D3C8",
"R. c #CAD1CD",
"E. c #CCD5CD",
"W. c #C5DAC9",
"Q. c #CBD9CC",
"!. c #C2CED6",
"~. c #C1CED9",
"^. c #C5D1D6",
"/. c #CCD3D6",
"(. c #CED9D0",
"). c #C4D1DA",
"_. c #CCD4DA",
"`. c #CFD8DC",
"'. c #D5D7D6",
"]. c #D6D8D7",
"[. c #D8D9D7",
"{. c #D2D6DA",
"}. c #D8D7D8",
"|. c #D4D9DB",
" X c #DADBDA",
".X c #DBDBDB",
"XX c #D9DDD9",
"oX c #DADCDA",
"OX c #DBDCDB",
"+X c #DDDCDD",
"@X c #DCDEDC",
"#X c #DEDFDE",
"$X c #E0DEDF",
"%X c #DFE1DF",
"&X c #D6DBE0",
"*X c #DCDFE1",
"=X c #E0DFE0",
"-X c #E2DCE2",
";X c #DDE1E3",
":X c #E1E0E0",
">X c #E1E0E2",
",X c #E2E0E2",
"<X c #E3E1E3",
"1X c #E2E2E2",
/* pixels */
" X X X X#X X X=X,X,X,X#XoX X X'.].oX].[.oX,X,X,X$X=X=X=X.XOX.X=X-X<X#XoX X}.}.%X,X,XoXoXOX X'.}.'.}. X XoX%X,X#X#X+X%X#X}.}.}.%X",
",X X'.'. XoX X X=X=X#X X#X.X X}.].oX[.[.[.[.%XoXY.a.3.a.k.'.#X$X<X%XOX.X[.[.}.#X,X,X#X#XoX[.#X#X X XoX X XoX#X X}.}.oX,XoX}.[.oX",
",X%X[.[.oX X}.}.+X X#X#X1X,XOX}.[.oXoX%XoXQ.a.&.F 1 % 1 A %.u..X=XoX[.[.}.}.}.oX[.=X=X=X#XoXOXOX X X[. X'. X X'.}.}. X X X XoX%X",
",X,XoX X X'. X'.}.[.'. X%X,X%XoX%X%X[.oXQ.-.Z & % % * * * * Z *.Y.OX%X[.oXoXoX}.'. XoX#X#X X#X X}.[. X X[. X X'.}.}.}.}.}.}. X$X",
",X,XoX X X}.'. XoX%X}.'.%X%X#X%X,XoX[.Q.&.& % % * * & & * * * * $.U.}.$X%X,X,X X'.}.}. X X}.#XoX X X X[. X X}. X}.[. X}.}.'. X#X",
"#X#X}.[. X X X X#X%XoX}. XoX XoX$X[.].-.* * * * * % & * * * * K * %.E.$XoX%X XoX#X#X X'.}. X'.'.}. XoX X X}.'. X X}.}. X}. X}.}.",
"}.}. X X X}.}. XOX%XoX}.oX}.}.[.#X#Xh.U * * J & & & & % * * J * * 1 w.$X}. X X X#X#X X'.}.[.[. X'.'. X$X X[.[.}.}. X'. X X}.}.}.",
" X X X'. X#X X X[.oXoX}.oX}. XoXoXoX=.J * * * & % & $ % * K * * * # ] Q.}. X'. X#X#XoX X X}.}.[. X X#X,X#X#X X X X}. X X X}.}. X",
" XOXoX X#X=X=X=XOX X}.}. X X}. X#X'.#.J * * < * J * * * < K < < < , G Q. X'. X#X X X[.OX X}.}.}. X#X#X#X%X=X,XoX X'.#X#X X X[.}.",
"#X#XOX X#X#X=X=X#X X X}.[. X X X#XQ.I * * * * * J K J * K K < < 1 - B p.#X#X#X#X X X}. X}. X X}. X[.'. X X#X#X#X#X X#X#X#X#X#XOX",
",X=X X X X'. X X#X=X XoX}. X X X=XT.N & < , < K J J * * K K 2 V 2 c B q.=X,X$X#X X}.[.}.'.[.'. X X}. X'. X X#X=X#X[. XoX XOX#X#X",
",X$X X[.'. X}.[. X$X=X,X#X X#X XOXT.H - , : , < J * & * , , > M 2 b S f.$X=X#X#X X'. X[.}. X X X X X}.[.}.'.#X=X X X#XoX[.'.'.OX",
",X,X,X X'.[. X}.}. X X#X%X,X,X#XOX'.^ ; b n b 2 < , , , > + + v b ; ^ Q.#X X X X X X}.}.}.oX X X#X#X X'.}.oX X}. X X X'. X}. X X",
"<X<X=X#X X'.}.}.}.'. X#X#X%X#X#XOX}.+.+ v M c : 2 V ; > ; + e t r r +.oX X'. XOX X XoX XoX%X X X#X=X#X XoX X[. X}.}.}. X X X#X X",
",X=X#X#XoX X'.}.}.[.}. X#X#X#X#X#X Xg.! m M m m v v p B p y 7 7 9 x i.}.'.[. X#X#X#XoX#X%XOX X}.#X$X=X#XoX X X X}.}.}.[. X}. X X",
",X=X#XOXoX X XoX X#X#X#X=X=X#X X X X}.8.D M m m u y i i q q q q q @.'.}.}.}. X#X$X,X#X#XoX#X X X#X#X,X,XoX X}.}.}.[.}.}.}. X X X",
"oX#X}.oXoX}.#X#X#X,X,X,X<X,X#X#X}. XoX}.;.D M u l k d 8 8 d q q o.T.oX X X[.'.#X,X,XOX XoX,X;XoX X#X$X=XoX'.'.'.'.]. X}.}. X X X",
" X X}.}.'. X#X#X#X#X X X X X#X#X X}. X X}.8./ B u i k f 8 8 W O.E.}.}.}. X X#X#X,X,X X'.oX,X,X%X XoX#X#X%XoX X XoX[. X X[. X}.#X",
" X}.oX}.'. XoX,X#X[.oX}. X X#X X X X X XoX%XA.3.| G S G ) +.f.'.}.[.[.}. X X$X=X,X,X#X X[.%X,X%X%X%X=X=X,X,X$X$XoXOX X[. X%X XoX",
"}.[.oX X X X#X%X#X#XoX X'.}. X'.[.oXoX#XOX;X;X%XE.u.8.p.T.'.}.}. X}.}. XoX X XoX#X,X$XOX[.OX%X'.W.k.e.3.a.Y.'. X%XOX'.oXoX,X,XoX",
"oX}.}. X}.=X,X#X#X#X X X[.}. X'.}.oXoXoX%X#X#X X X X#X=XoX'. X[.'.}.}.}.'.}.}.oXoX,X,XoX#X Xr.&.Y I J * L I $.>.A.oX X X X#X#X=X",
"oX}.}.}.}.=X#X#X}.'. XOX[.}.}. X}.}.}. X;XoXOX X X}.'.+X X'.'.'.[. X X X[. XoX XoX%X#X#Xl.*.4 * J J J J J J % % Y 9.E.}.'. X,X,X",
"oX X'.}.'.%X=X#X#X#X$X=X X'.}.}.}.oXoX#XoX}.oX X X'.}. X X X X X#XoX X#X#X#X$XoX X#XoXa.T * * * % * J J * * % & % 1 =.T. X}.oX X",
"]. X X#X#X,X=X$X#X#X=X=X=X#X#X X[.%X,X,X X'.}.}. X X[.[. X X#X#X#X X X X#X#X#X X$X#Xj.Y * * * * J * J J * * * % * % < -.'.[.[. X",
"]. X#X#X#X#X$X$X X X#X=X#X=X=X=X%X,X1X,X}.}.}.}.oX}. X}. X}.oX,X=XoX XoX X X XoX#XQ.#.* * * * * J J J J J J J J * * & 1 q.[. X X",
"oXoX#XOX#X#X#X#X#X#X.X#X X X X=X%X,X,X%XoX}.}.}.}.}.}.oX'. X#X=X%X,X#X#X X'. X X#X9.3 * * * J J % % J J J J K J % * & , H T.#XoX",
" X[.#X X X}. X X#X+X X}.}.}.[.oX#X%X,X%XoX X'. X X}.}.}.}.oX,X,X#X#X,X=X+X X#X XA.H * J J J J J J J J J J J K K J J , : c 3. X X",
" X}.[.'. X X'. X#X+X}. XoX X X X$X%X,X%X#XoX X XoX XoX}.[.#X,XoX X X=X=X#X X+X}.w.> , < K * * J J * J J J J J J J * , > ; ] Q.OX",
" X'.[.}. X}.}. X X X X X#X#X,X,X,X,X,X,X,X=X X X#X=X X X X X X}. X'. X X X X#X+X@.- & , < * * * * * J J J * J * * & > + w z A.,X",
"'. X}.'.}.}.}. X X X#X+X=X=X,X,X,X#X=X=X,X,X#X#X#X#X X[. XoX X}.}. X[.}. X X#X X| = , & , , & & * < < K * * * * < - + + w p p.#X",
"}. X}. X[.}.}.}. X+X#X$X$X#X*X#X#X#X#X=X,X,X%X#X XoX[.}.}.'. X X}.}. X'. X#X#XE.H : 2 , * - , , , 2 , < < < , - ; ; + + e O 8.oX",
"}.[.}.}. X'. X X.X$X#X=X#X#X#X[.#X#X#X#X,X,X#X#X}.'. X'. X X}.}. X[.}.}.'.'. XQ.] : 2 2 < , , - = : : : : : : ; + t + + + r q.[.",
"}.'.}..X[.[.[.[..X$X%X%XoXoX X}. XoX#XoX#X#X#X#XoX[.}.}.[.}.}. X}.}. X}.}.'.'. X@.: b 2 2 2 2 2 , , 2 2 2 2 : c r + + O t l f. X",
".X.X}.}..X[.[.}..XOXOX%X,X%X,X#X X X X#X X#X#X#X#XoXoX X}.[.}.}.}. X X[.}. X X#X8.v V C 2 b : : 2 , 2 : : n c t r r r 9 w ! U.'.",
".X.X}.[.'.}.}.XXOXoX%XQ.Y.a.:.0.h.U.}. X X XoX@X#X#X#X}. X'.'.}. X X X X[.}. X$Xl.S n > C b n n M M M M t p u e t r e 7 5 } }.}.",
".X.X}.}..X.XXX%X$XY.3.$.I L < 1 I Y *.r.'.}.oXoX#XOX XoXoX X X X'. XoX X X#X$X=X'.] n v M M n n M m l y i y y u r t 9 8 g t.}.[.",
".X X XOX$X.X$X%X0.T J J J J J J * * * L %.j. XoX}. X X#X,X$X X X#X=X X X'.}. X+X$Xi.x p B m m v c r y e e e c : c y 0 . o.'.}.}.",
" X[.oX$X X$X[.-.P J J J J J J J K * J J J R a. X X X X X$X<X$X#X=X,XoX}.}. X}.}.$X$X@.z u B m m t y e y t t c v y q 0 Q l.$X}. X",
"%XOXXX$X%X}.=.J J J J J J * * * J J * * * * Y j. X X'. X#X#X;X%X,X#X}.}. X[.}.}.=X}.'.@.z p B B j k y y y y j f f f Q d.-X X X#X",
"OX[.}.'.%X0.L J J J J J J * * * * * J J * * * #.Y.#X X XoX X X;X,XoX X}.}. X}. X}.}.}.Q.6.x j p j y j y j s a a g { A.$X$X$X X}.",
".X[.}. Xl.T * * & * * * J J * * * * * * * * J * 3.%X%X%XoXoXOX%X#XoX X X}.}.}. XoX'.'.}.#Xg.{ x f y s s f f h Q 7./.#X$X#X X X}.",
" X X}..X-.& * % % * * * J * * * * * * * & * * * Y A.%X%XOX'.OX%XoX X'. X X'.}.}. X X}.oX%X%XE.d.1.o.` W o.1.t.T.$X$X#X}.'.'. X X",
"%X<X XT.H $ & & & & J J J J J J * * < * , < < , 3 w. X X X}.oX}.}.}.'.[. X}.'.}.#XoXoX%XoX'.}.}. X}.T.T.}. XoX]. X#X*X}.'.'.'.}.",
"<X$X#Xl.F & * & , * K J * K J * % * < < , , J , & -. X'.}.}.'.}.}.}.'. X#X X'. X X X#X%XoX}.oX}.}.}.}.}. X XoXoX+X*X*X X}.'.'.oX",
"OX%X$Xp.1 : - < , , < < * K < * * J * , 2 : < 2 , ] oX#X}.}.'.'.}.}.].#XoX#X X+XoXoX%X X|. X|. X}.'.}.|.oX].|.;X;X|.oX}.oX}.oX'.",
"OX.X$X3.; ; : , < < 2 < < < < < * K , , : : < 2 - H Y. X'./.'.'.].].}.oXoX#X*X,X,X,XOX X|.|.[.OXoX#X}.].].oXoX|.;XoX].].].}.[.oX",
"OX[.-Xw.v c : = - , - : : : b : 2 V 4 : ; ; b b ; ] E. X/./.{.'.}.'.].}. X#X*X,X,X,X#X|. X X'.#X#X%XoX[.oX|.;XoXoX|.[.].].].}.oX",
".XOX$Xf.p + = ; + = = : 2 b b ; : 2 V : c > v B r +.}. X{.{.'.}.oX].'.}.}.}.*X#X,X%X%X#X X#X}.}.|.;X;X;X;X|.;X|.*X#X'.oX}.}.oXoX",
"OX X XU.G w ; ; w r t : 2 2 b V ; ; : > v u m p k 1. X|.{././.'.|.|.&X X*X X#X&X=X*X=X=X*X}.{._.|.*X#X*X#X#XOX XoX'. X#X}.|.;X;X",
"[.[.}.'.} w + + v r t t ; 2 b c + + c v m u i s E f. X}./.!././.{._. X@X@XOX&X X*X*X*X*X X}.{.&X*X XoX X'.{._.'.|.}.}.}.|.;X;X;X",
"OX X[.}.t.z r r c r t t u m m u y y u u u y s s .._.}.}.{._.~.!.{./.{.{.|.|.@X*X#X|.*X*X}.{.&X&XoX*X*X|.oX_.^.`.Q.{.'.'.|.*X*X$X",
" X X}.'.^.{ e t + ; c t y u u l y y t y 7 8 8 h t.{.'.#X X_._._.}.{.{.{.{.}.|.#X#X_.}.}._._.&X&X&X X#X*X#X X^.^._.'.{.'.}.*X&X*X",
"#X_.^.}.|.Z.~ y m v + + r e t y y y q q 0 X d ,.!.|.OX;X X_.^.&X X`.&X{.|.{.@X*X#X{.{._._.)._.).{.{.{.|.&X&X_.^._./.`.{.|.{.&X;X",
" X_._.}.}.Q.d.~ u t y e 7 9 9 9 q d 0 . X d O.!.^.{.#X*X X_.).{. X&X&X&X|.|.@X@X#X{.`.&X).)._.&X{._.{._._.{.{.{._._.|.`.{.{.;X;X",
"{._._._._.{.{.d.' l i 9 8 d o d o o . . E ,./._.!._. X'.|.{._.&X#X_._.+XoX@X%X&X&X{._._.~.~.`._._._.~.~.J.!.{.|.)._._.P._.&X&X&X",
"_.^.!._.|.|._._.T.1.~ z j s f q d o o [ i./.|._.!.~._.^.{.&X^.{.{.).^.|.}.|.|.{._._.{.).K.~.)._.`._.~.J.H.!._.J.K.).).K.L.{.`.&X",
"'.!._.{.&X{.^._.`.).Z.y.<...! ) o.1.i.E.{.}.{._.!.~.^._.{._.)._._.J.!.{.{.{.'.{._._.&XZ.G.C.y.4.3.y.d.C.J.J.L.F.S.L.`.P.L.).)._.",
"^.^._.{._.~.(.(._.~.).)./.T.Z.J./.{.{.{._.{._._.!.~.(._.{./.L.{._.~.~.^./.{./._._.&X{.y. .D Z - - > N ( @.V.F.B.S.K.).).).L.K._.",
"(._.^.!.J.J.J.!.L.!.^.).~._.{._.{./.'.^._.{.).~.L._.{._.{.~.~.&X|.^.L.!.!._._._.&Xd.| Z , # = = - = # # & H <.v.n.H.P.P.I.K.S.).",
"_._.J.J.J.J.G.C.J.!._.).J.~._._._.{.^.^._./.L.H.~._._.~./.~.K._.`.).).L.!.~.^.^.u.H & & - = = ; ; r = = # $ :  .N.L.F.B.K.L.F.).",
"_._.~.L.H.H.D.S.J.~.~./.L.!.!.!.^._.^.^._._.H.G.L.~.F.D.F.L.).)._._.).J.~.J.J.t.H # - - ; O r w t t c r = , @ O X.F.c.c.b.K.L.I.",
").~.~._.J.K.G.J.D.G.K./.!.J.J.!.!.!.J.J.~._.G.M.L.G.M.m.b.F.L.).).L.P.!.J.G.V.( - - ; ; ; O w O 6 e t t ; : O @ b X.5.z.z.B.L.L.",
"L.G.J._.).K.L.K.m.v.m.M.!.!.H.J.!.G.G.G.D.J.L.L.J.n.v.v.v.F.L.L.L.F.G.~.~.~.3.c r t 7 7 7 9 6 5 5 5 9 y y v m m m z 2.5.z.F.K.K.",
"L.L.L.~.).).L.S.z.z.c.M.J.G.J.M.G.M.D.D.m.G.~.~.M.x.z.v.S.K.L.K.K.K.J.~.).V./ c j s 8 8 9           8 9 7 m B j y 6 [ 5.m.F.F.F."
};
